<?xml version="1.0" encoding="utf-8"?>
<!-- Generator: Adobe Illustrator 24.1.1, SVG Export Plug-In . SVG Version: 6.00 Build 0)  -->
<svg version="1.1" id="レイヤー_1" xmlns="http://www.w3.org/2000/svg" xmlns:xlink="http://www.w3.org/1999/xlink" x="0px"
	 y="0px" viewBox="0 0 340 120" style="enable-background:new 0 0 340 120;" xml:space="preserve">
<style type="text/css">
	.st0{fill-rule:evenodd;clip-rule:evenodd;fill:none;}
	.st1{fill-rule:evenodd;clip-rule:evenodd;fill:#FFFFFF;filter:url(#Adobe_OpacityMaskFilter);}
	.st2{mask:url(#a_1_);fill:#364C97;}
	.st3{fill:#FFFFFF;stroke:#364C97;stroke-width:2;}
	.st4{fill:#364C97;}
	.st5{fill:none;stroke:#364C97;stroke-width:2;}
	.st6{fill:none;stroke:#333333;stroke-width:2;}
	.st7{fill:#4D4D4D;}
	.st8{fill-rule:evenodd;clip-rule:evenodd;fill:#FFFFFF;filter:url(#Adobe_OpacityMaskFilter_1_);}
	.st9{mask:url(#b_1_);fill:#364C97;}
</style>
<path class="st0" d="M141,24H98v96h47V44h97V24h-97H141z"/>
<defs>
	<filter id="Adobe_OpacityMaskFilter" filterUnits="userSpaceOnUse" x="96" y="22" width="148" height="100">
		<feColorMatrix  type="matrix" values="1 0 0 0 0  0 1 0 0 0  0 0 1 0 0  0 0 0 1 0"/>
	</filter>
</defs>
<mask maskUnits="userSpaceOnUse" x="96" y="22" width="148" height="100" id="a_1_">
	<path class="st1" d="M141,24H98v96h47V44h97V24h-97H141z"/>
</mask>
<path class="st2" d="M98,24v-2h-2v2H98z M98,120h-2v2h2V120z M145,120v2h2v-2H145z M145,44v-2h-2v2H145z M242,44v2h2v-2H242z
	 M242,24h2v-2h-2V24z M98,26h43v-4H98V26z M100,120V24h-4v96H100z M145,118H98v4h47V118z M143,44v76h4V44H143z M242,42h-97v4h97V42z
	 M240,24v20h4V24H240z M145,26h97v-4h-97V26z M141,26h4v-4h-4V26z"/>
<path class="st3" d="M148,47h44v72h-44V47z"/>
<path class="st4" d="M162.7,71.3h1.5v-1h-1.5v-1.1h-1.2v1.1H160v1h1.5v1.3h-2v1.1h5.2v-1.1h-2L162.7,71.3z M162.9,66
	c-0.2,0.5-0.5,0.9-0.9,1.3c-0.3-0.4-0.6-0.8-0.8-1.3H162.9z M158.7,68.5h-0.7v-0.6h0.7V68.5z M158.7,69.8h-0.7v-0.6h0.7V69.8z
	 M156.4,69.2h0.7v0.6h-0.7V69.2z M156.4,67.9h0.7v0.6h-0.7V67.9z M163.7,64.9l-0.2,0h-3.6v1h1.2l-0.8,0.2c0.3,0.7,0.6,1.2,1,1.7
	c-0.5,0.3-1.1,0.6-1.7,0.8V67h-1.5v-0.6h1.6v-1h-1.6v-0.9H157v0.9h-1.5v1h1.5V67h-1.4v3.6h1.4v0.6h-1.7v1h1.7v1.6h1.1v-1.6h1.6v-1
	h-1.6v-0.6h1.5V69c0.2,0.2,0.3,0.5,0.4,0.7c0.8-0.3,1.5-0.6,2.1-1c0.6,0.4,1.2,0.8,2,1c0.1-0.3,0.5-0.7,0.7-1
	c-0.7-0.2-1.3-0.4-1.9-0.8c0.7-0.7,1.2-1.6,1.5-2.7L163.7,64.9z M168,66.7h6.6v-1.1h-3.6v-1.1h-1.3v1.1h-3V68
	c-0.1-0.5-0.4-1.1-0.7-1.6l-0.9,0.4c0.3,0.6,0.6,1.4,0.7,1.9l0.9-0.4v0.3c0,0.3,0,0.6,0,0.9c-0.6,0.3-1.2,0.6-1.6,0.8l0.3,1.1
	c0.4-0.2,0.7-0.4,1.1-0.7c-0.2,0.8-0.5,1.7-1.1,2.3c0.2,0.1,0.7,0.6,0.9,0.8c1.4-1.4,1.6-3.7,1.6-5.3V66.7z M172.1,72.6v-1.8h2.1v-1
	h-2.1v-1.4h2.3v-1h-5.8v1h2.4v4.1h-1v-3.1h-1.1v3.1h-1v1h6.9v-1H172.1z M180,67.9c-0.7,0-1.3,0.6-1.3,1.3s0.6,1.3,1.3,1.3
	s1.3-0.6,1.3-1.3S180.7,67.9,180,67.9z M160.6,81.6v-2.2h2.3v2.2H160.6z M157.1,81.6v-2.2h2.3v2.2H157.1z M160.6,78.3v-1.7h-1.3v1.7
	h-3.4v5h1.2v-0.6h2.3v3.1h1.3v-3.1h2.3v0.5h1.3v-5H160.6z M174.6,81.9v-1h-3.9v-0.6h3v-1h-3V79c0.2-0.2,0.4-0.5,0.6-0.8h0.4
	c0.3,0.4,0.5,0.8,0.6,1.1l1-0.4c-0.1-0.2-0.2-0.4-0.4-0.6h1.7v-1h-2.8c0.1-0.2,0.2-0.3,0.2-0.5l-1.1-0.3c-0.2,0.6-0.5,1.2-0.9,1.6
	v-0.8h-2.2c0.1-0.2,0.2-0.3,0.2-0.5l-1.1-0.3c-0.4,0.8-0.9,1.7-1.6,2.3c0.3,0.1,0.8,0.5,1,0.7c0.3-0.3,0.6-0.7,0.9-1.1h0.1
	c0.2,0.4,0.4,0.8,0.5,1.1l1-0.4c-0.1-0.2-0.2-0.4-0.3-0.6h1.3c-0.1,0.1-0.2,0.2-0.4,0.3c0.1,0.1,0.4,0.2,0.6,0.3h-0.6v0.5h-2.9v1
	h2.9v0.6h-3.9v1h5.9v0.6h-5.5v1h1.8l-0.5,0.4c0.6,0.4,1.2,1.1,1.5,1.5l0.9-0.7c-0.3-0.3-0.7-0.8-1.2-1.2h3v1.1
	c0,0.1-0.1,0.2-0.2,0.2s-0.8,0-1.3,0c0.2,0.3,0.4,0.8,0.4,1.1c0.7,0,1.3,0,1.7-0.2c0.4-0.2,0.6-0.5,0.6-1.1v-1.1h1.7v-1h-1.7V82
	L174.6,81.9z M178,78.7h6.6v-1.1h-3.6v-1.1h-1.3v1.1h-3V80c-0.1-0.5-0.4-1.1-0.7-1.6l-0.9,0.4c0.3,0.6,0.6,1.4,0.7,1.9l0.9-0.4v0.3
	c0,0.3,0,0.6,0,0.9c-0.6,0.3-1.2,0.6-1.6,0.8l0.3,1.1c0.4-0.2,0.7-0.4,1.1-0.7c-0.2,0.8-0.5,1.7-1.1,2.3c0.2,0.1,0.7,0.6,0.9,0.8
	c1.4-1.4,1.6-3.7,1.6-5.3V78.7z M182.1,84.6v-1.8h2.1v-1h-2.1v-1.4h2.3v-1h-5.8v1h2.4v4.1h-1v-3.1h-1.1v3.1h-1v1h6.9v-1H182.1z"/>
<path class="st5" d="M196,47h45v72h-45V47z"/>
<path class="st6" d="M1,1h45v118H1V1z"/>
<path class="st7" d="M9.1,70.3v-0.9h1v0.6c0,0.1,0,0.2,0,0.3L9.1,70.3z M12.2,69.3v0.9h-1.1c0-0.1,0-0.2,0-0.3v-0.6L12.2,69.3z
	 M9.4,66.8c0.5-0.4,0.9-0.8,1.2-1.3c0.3,0.4,0.7,0.9,1.2,1.3H9.4z M13.3,71.2v-2.8h-2.1v-0.6h1.3v-0.5c0.3,0.2,0.5,0.3,0.8,0.5
	c0.2-0.3,0.4-0.8,0.6-1c-1-0.4-2.1-1.2-2.8-2.2H10c-0.5,0.8-1.4,1.6-2.3,2.1v-0.1H6.8v-2.1H5.7v2.1H4.5v1.1h1.2
	c-0.3,1.2-0.8,2.6-1.4,3.4c0.2,0.3,0.4,0.7,0.5,1.1c0.3-0.5,0.7-1.2,0.9-1.9v3.7h1.1v-4.3C7,70,7.2,70.5,7.3,70.7l0.6-0.9
	c-0.2-0.3-0.8-1.3-1.1-1.7v-0.5h0.9v-0.5c0.1,0.2,0.2,0.4,0.3,0.6c0.3-0.1,0.6-0.3,0.8-0.5v0.5h1.3v0.6H8v2.8h1.8
	c-0.3,0.7-0.9,1.4-2.5,1.8c0.2,0.2,0.5,0.6,0.6,0.9c1.5-0.5,2.3-1.2,2.7-2c0.6,1.1,1.4,1.6,2.4,2c0.1-0.3,0.4-0.7,0.7-1
	c-1-0.3-1.7-0.7-2.3-1.7L13.3,71.2z M16.2,68.8c0.8-0.5,1.6-1.2,2.2-1.9v1.6h1.2V67c0.6,0.7,1.4,1.4,2.2,1.8H16.2z M17.3,72.6v-0.4
	h3.4v0.4H17.3z M17.3,71h3.4v0.4h-3.4V71z M20.7,70.2h-3.4v-0.4h3.4V70.2z M23.5,66.7v-1h-3.9v-1.1h-1.2v1.1h-3.8v1h2.7
	c-0.8,0.8-1.9,1.4-3,1.8c0.3,0.2,0.6,0.7,0.7,0.9c0.4-0.2,0.8-0.3,1.1-0.6v3.8h-1.6v1h9v-1h-1.6v-3.8c0.3,0.2,0.7,0.4,1,0.5
	c0.2-0.3,0.5-0.7,0.8-0.9c-1.1-0.3-2.3-1-3.1-1.7L23.5,66.7z M25.9,67.2v-0.8H32v0.8h-2.5v-0.6h-1.2v0.6H25.9z M33.4,71.4v-1h-4
	c0-0.2,0.1-0.4,0.1-0.6h2.7v-1h-2.7v-0.6h2.9v-0.7h0.8v-2.1h-3.7v-0.9h-1.2v0.9h-3.6v2.1h0.9v0.7h2.7v0.6h-2.6v1h2.6
	c0,0.2,0,0.4-0.1,0.6h-3.6v1h3c-0.5,0.6-1.5,1.1-3.2,1.5c0.3,0.3,0.6,0.7,0.7,1c2-0.6,3.1-1.3,3.7-2.2c0.8,1.2,2,1.9,3.9,2.3
	c0.2-0.3,0.5-0.8,0.7-1c-1.6-0.2-2.7-0.6-3.4-1.4L33.4,71.4z M38.2,69.7l0-1v-0.4h-1.8c0-0.3,0-0.7,0-1.1h1.9
	c-0.1,0.1-0.2,0.3-0.3,0.4c0.3,0.2,0.7,0.6,0.9,0.8l0.1-0.1v1L38.2,69.7z M40.7,72.8c-0.5,0-0.6-0.1-0.6-0.5V70l0.5-0.3V72h1v-2.8
	l0.6-0.3c0,0.9,0,1.5,0,1.6c0,0.1-0.1,0.2-0.1,0.2s-0.2,0-0.3,0c0.1,0.2,0.2,0.6,0.2,0.9c0.3,0,0.6,0,0.8-0.1
	c0.3-0.1,0.4-0.3,0.4-0.7c0-0.3,0-1.3,0-2.7l0-0.2l-0.7-0.3l-0.2,0.1l0,0l-0.7,0.3v-1h-1v1.4l-0.5,0.3v-1h-0.7
	c0.2-0.3,0.4-0.6,0.6-1h3.6v-1.1h-3.1c0.1-0.3,0.2-0.7,0.3-1l-1.2-0.2c-0.2,0.8-0.5,1.6-0.9,2.3V66h-1.6v-1.5h-1.1V66h-1.5v1.1h1
	c0,2.3-0.1,4.5-1.1,5.9c0.3,0.2,0.7,0.6,0.8,0.8c0.8-1.1,1.2-2.8,1.3-4.6h0.8c0,2.3-0.1,3.2-0.2,3.4c-0.1,0.1-0.2,0.2-0.3,0.2
	s-0.4,0-0.7,0c0.2,0.3,0.3,0.7,0.3,1.1c0.4,0,0.8,0,1-0.1c0.3-0.1,0.5-0.2,0.6-0.4c0.2-0.3,0.3-1.3,0.3-3.7l0.4,1l0.4-0.2v1.9
	c0,1.1,0.3,1.5,1.5,1.5h1.8c1,0,1.3-0.4,1.4-1.6c-0.3-0.1-0.7-0.2-1-0.4c-0.1,0.9-0.1,1.1-0.5,1.1L40.7,72.8z M18.2,76.8
	c-0.1,1.3,0.1,5.9-3.9,8.1c0.4,0.3,0.8,0.6,1,0.9c2.1-1.3,3.2-3.2,3.7-5c0.6,1.8,1.7,3.9,3.9,5c0.2-0.3,0.5-0.7,0.9-1
	c-3.7-1.8-4.2-6.1-4.3-7.4c0-0.2,0-0.4,0-0.6L18.2,76.8z M29.4,82.7v-1c0.1,0.1,0.1,0.1,0.1,0.2c0.2-0.2,0.3-0.5,0.5-0.7
	c0.2,0.7,0.4,1.4,0.7,2c-0.4,0.6-1,1.1-1.8,1.5c-0.2-0.2-0.5-0.3-0.8-0.5c0.3-0.4,0.4-0.9,0.5-1.4L29.4,82.7z M26.5,82.7h1
	c-0.1,0.4-0.2,0.7-0.4,0.9c-0.3-0.1-0.6-0.3-0.9-0.4L26.5,82.7z M31.9,79.4c-0.1,0.9-0.3,1.7-0.5,2.3c-0.3-0.7-0.5-1.5-0.6-2.3H31.9
	z M33.7,79.4v-1.1H31c0.1-0.5,0.2-1.1,0.3-1.6l-1.2-0.2c-0.2,1.8-0.7,3.5-1.6,4.5c0.2,0.2,0.6,0.5,0.8,0.7H27l0.2-0.5l-0.4-0.1h0.6
	v-1.2c0.4,0.3,0.8,0.7,1,0.9l0.6-0.8c-0.2-0.2-0.9-0.6-1.4-0.8h1.6v-0.9h-1c0.2-0.3,0.5-0.7,0.9-1.2l-1-0.4
	c-0.2,0.4-0.4,0.9-0.7,1.3l0.7,0.3h-0.8v-1.7h-1.1v1.7h-0.8l0.6-0.3c-0.1-0.3-0.3-0.9-0.6-1.2L24.7,77c0.2,0.4,0.4,0.8,0.5,1.2h-0.8
	v0.9H26c-0.5,0.5-1.1,1-1.8,1.3c0.2,0.2,0.5,0.6,0.6,0.9c0.5-0.3,1-0.7,1.5-1.2v1L26.1,81c-0.1,0.2-0.2,0.5-0.3,0.7h-1.5v1h1
	c-0.3,0.5-0.5,0.9-0.7,1.3l1,0.3l0.1-0.2c0.2,0.1,0.4,0.2,0.6,0.3c-0.5,0.3-1.1,0.4-1.9,0.5c0.2,0.2,0.4,0.6,0.5,1
	c1.1-0.2,1.9-0.5,2.5-0.9c0.4,0.3,0.8,0.5,1,0.8l0.5-0.5c0.2,0.2,0.3,0.5,0.4,0.7c0.9-0.4,1.6-1,2.1-1.6c0.5,0.7,1,1.2,1.7,1.6
	c0.2-0.3,0.5-0.8,0.8-1c-0.7-0.4-1.3-0.9-1.8-1.7c0.5-1,0.9-2.3,1.1-3.7L33.7,79.4z"/>
<path class="st0" d="M340,0H49v17v5v98h47V22h244V0z"/>
<defs>
	<filter id="Adobe_OpacityMaskFilter_1_" filterUnits="userSpaceOnUse" x="47" y="-2" width="295" height="124">
		<feColorMatrix  type="matrix" values="1 0 0 0 0  0 1 0 0 0  0 0 1 0 0  0 0 0 1 0"/>
	</filter>
</defs>
<mask maskUnits="userSpaceOnUse" x="47" y="-2" width="295" height="124" id="b_1_">
	<path class="st8" d="M340,0H49v17v5v98h47V22h244V0z"/>
</mask>
<path class="st9" d="M49,0v-2h-2v2H49z M340,0h2v-2h-2V0z M49,120h-2v2h2V120z M96,120v2h2v-2H96z M96,22v-2h-2v2H96z M340,22v2h2
	v-2H340z M49,2h291v-4H49V2z M51,17V0h-4v17H51z M51,22v-5h-4v5H51z M51,120V22h-4v98H51z M96,118H49v4h47V118z M94,22v98h4V22H94z
	 M340,20H96v4h244V20z M338,0v22h4V0H338z"/>
<path class="st4" d="M60.1,66.3h-2.3v-0.5h2.3V66.3z M60.1,67.6h-2.3v-0.5h2.3V67.6z M61.2,65h-4.5v3.4h4.5V65z M61.9,69.8v-0.9h-6
	v0.9h1c-0.3,0.5-0.7,1-1.2,1.4c0.1-0.2,0.2-0.5,0.2-0.9c0-0.6-0.1-1.3-0.7-2c0.3-0.8,0.6-1.9,0.9-2.7L55.3,65l-0.2,0.1H53V74h1v-7.8
	h0.8c-0.2,0.7-0.4,1.6-0.6,2.2c0.6,0.7,0.7,1.3,0.7,1.8c0,0.3,0,0.5-0.2,0.6c-0.1,0.1-0.2,0.1-0.3,0.1c-0.1,0-0.3,0-0.4,0
	c0.2,0.3,0.3,0.7,0.3,1c0.2,0,0.5,0,0.6,0c0.2,0,0.4-0.1,0.5-0.2c0.2,0.2,0.5,0.5,0.6,0.6c0.4-0.3,0.8-0.6,1.1-1h0.5
	c-0.5,0.8-1.2,1.4-2,1.9c0.2,0.2,0.5,0.6,0.7,0.7c0.9-0.6,1.9-1.5,2.4-2.6h0.5c-0.4,0.9-1,1.7-1.7,2.2c0.2,0.2,0.6,0.5,0.7,0.7
	c0.8-0.7,1.5-1.7,2-2.8h0.2c-0.1,1.2-0.2,1.7-0.3,1.8c-0.1,0.1-0.2,0.1-0.3,0.1s-0.4,0-0.6,0c0.1,0.3,0.3,0.7,0.3,1c0.4,0,0.7,0,1,0
	c0.2-0.1,0.4-0.1,0.6-0.3c0.3-0.3,0.4-1.1,0.5-3l0-0.4h-3.8c0.1-0.2,0.2-0.3,0.3-0.5H61.9z M69.5,72.6v-2h1.8v-1.1h-1.8v-1.6h2v-1.1
	h-2v-2h-1.2v2h-0.8c0.1-0.4,0.2-0.9,0.3-1.4l-1.2-0.2c-0.1,0.8-0.3,1.7-0.5,2.4c-0.1-0.4-0.3-0.9-0.6-1.3l-0.6,0.2v-1.9h-1.2v2
	l-0.8-0.1c-0.1,0.8-0.3,1.9-0.5,2.6l0.9,0.3c0.2-0.7,0.4-1.8,0.4-2.7V74h1.2v-6.8c0.2,0.4,0.3,0.8,0.4,1.2l0.6-0.3
	c-0.1,0.2-0.2,0.4-0.3,0.6c0.3,0.1,0.8,0.4,1.1,0.5c0.2-0.4,0.4-0.9,0.6-1.4h1.1v1.6h-1.9v1.1h1.9v2h-2.7v1.1h6.2v-1.1L69.5,72.6z
	 M77.2,66.8h1.6c-0.3,0.3-0.7,0.6-1.1,0.9h-0.6L77.2,66.8z M79.3,71.1h-3.4v-0.6h3.4V71.1z M75.9,72.7V72h3.4v0.7H75.9z M81.7,68.7
	v-1.1h-2.3c0.7-0.7,1.4-1.4,2-2.2l-1-0.5c-0.3,0.4-0.7,0.9-1,1.3v-0.5h-2.2v-1.1H76v1.1h-2.3v1H76v0.9h-3.2v1.1h3.4
	c-1.2,0.7-2.4,1.3-3.7,1.7c0.2,0.2,0.6,0.7,0.7,1c0.5-0.2,1-0.4,1.5-0.6V74h1.2v-0.3h3.4V74h1.3v-4.4h-3.6c0.4-0.3,0.8-0.5,1.2-0.8
	L81.7,68.7z M87.6,70.8v-1c0.1,0.1,0.1,0.1,0.1,0.2c0.2-0.2,0.3-0.5,0.5-0.7c0.2,0.7,0.4,1.4,0.7,2c-0.4,0.6-1,1.1-1.8,1.5
	c-0.2-0.2-0.5-0.3-0.8-0.5c0.3-0.4,0.4-0.9,0.5-1.4L87.6,70.8z M84.7,70.8h1c-0.1,0.4-0.2,0.7-0.4,0.9c-0.3-0.1-0.6-0.3-0.9-0.4
	L84.7,70.8z M90.1,67.6c-0.1,0.9-0.3,1.7-0.5,2.3c-0.3-0.7-0.5-1.5-0.6-2.3H90.1z M91.9,67.6v-1.1h-2.7c0.1-0.5,0.2-1.1,0.3-1.6
	l-1.2-0.2c-0.2,1.8-0.7,3.5-1.6,4.5c0.2,0.2,0.6,0.5,0.8,0.7h-2.4l0.2-0.5L85,69.3h0.6v-1.2c0.4,0.3,0.8,0.7,1,0.9l0.6-0.8
	c-0.2-0.2-0.9-0.6-1.4-0.8h1.6v-0.9h-0.9c0.2-0.3,0.6-0.7,0.9-1.2l-1-0.4c-0.2,0.4-0.4,0.9-0.7,1.3l0.7,0.3h-0.8v-1.7h-1.1v1.7h-0.8
	l0.6-0.3c-0.1-0.3-0.3-0.9-0.6-1.2l-0.9,0.4c0.2,0.4,0.4,0.8,0.5,1.2h-0.8v0.9h1.6c-0.5,0.5-1.2,1-1.8,1.3c0.2,0.2,0.5,0.6,0.6,0.9
	c0.5-0.3,1-0.7,1.5-1.2v1l-0.2-0.1c-0.1,0.2-0.2,0.5-0.3,0.7h-1.4v1h0.9c-0.3,0.5-0.5,0.9-0.7,1.3l1,0.3l0.1-0.2
	c0.2,0.1,0.4,0.2,0.6,0.3c-0.5,0.3-1.1,0.4-1.9,0.5c0.2,0.2,0.4,0.6,0.5,1c1.1-0.2,1.9-0.5,2.5-0.9c0.4,0.3,0.8,0.5,1,0.8l0.4-0.5
	c0.2,0.2,0.3,0.5,0.4,0.7c0.9-0.4,1.6-1,2.1-1.6c0.4,0.7,1,1.2,1.7,1.6c0.2-0.3,0.6-0.8,0.8-1c-0.7-0.4-1.3-0.9-1.8-1.7
	c0.5-1,0.9-2.3,1.1-3.7L91.9,67.6z"/>
<path class="st5" d="M245,25h45v94h-45V25z"/>
<path class="st5" d="M294,25h45v94h-45V25z"/>
<g>
	<path class="st4" d="M311,80.8h0.8c0.2,0.6,0.4,1.1,0.7,1.6c-0.5,0.1-1,0.2-1.5,0.3V80.8z M313.6,77.9v0.5H311v-0.5H313.6z
		 M314.4,80.8c-0.3,0.3-0.7,0.6-1,0.8c-0.2-0.2-0.3-0.5-0.4-0.8H314.4z M311.1,79.8v-0.6h2.5v0.6H311.1z M309.5,84.2
		c0.9-0.2,2.1-0.5,3.2-0.8l-0.1-0.9c0.5,0.8,1.2,1.4,2.2,1.8c0.2-0.3,0.5-0.8,0.8-1c-0.7-0.2-1.2-0.5-1.7-0.9c0.5-0.3,1-0.6,1.5-0.9
		l-0.8-0.6v-3.8h-4.8v6.1c-0.2,0-0.4,0.1-0.6,0.1L309.5,84.2z M309.1,78.3c-0.4-0.5-1.1-1.1-1.7-1.5l-0.9,0.7
		c0.6,0.4,1.3,1.1,1.6,1.6L309.1,78.3z M308.8,80.4h-2.3v1.1h1.1v2.1c-0.4,0.3-0.9,0.7-1.4,0.9l0.6,1.2c0.5-0.4,1-0.8,1.4-1.2
		c0.6,0.8,1.5,1.1,2.7,1.1c1.2,0.1,3.2,0,4.4,0c0.1-0.3,0.2-0.9,0.4-1.2c-1.3,0.1-3.6,0.1-4.8,0.1c-1,0-1.8-0.3-2.2-1L308.8,80.4z
		 M324.5,79.4h-3.6v-0.8h3.6V79.4z M319.8,77.6v2h0.7v0.9h4.3v-0.9h0.8v-2h-2.4v-1.1H322v1.1H319.8z M319.1,76.9l-0.2,0.1h-2.2v8.9
		h1V78h0.8c-0.2,0.7-0.4,1.6-0.6,2.2c0.6,0.7,0.7,1.3,0.7,1.8c0,0.3,0,0.5-0.1,0.6c-0.1,0.1-0.2,0.1-0.3,0.1c-0.1,0-0.3,0-0.4,0
		c0.2,0.3,0.3,0.7,0.3,1c0.2,0,0.5,0,0.6,0c0.2,0,0.4-0.1,0.6-0.2c0.3-0.2,0.4-0.6,0.4-1.3c0-0.6-0.1-1.3-0.7-2
		c0.3-0.8,0.6-1.9,0.9-2.7L319.1,76.9z M324.2,84.7c-0.1,0-0.2,0-0.2-0.3v-2.2h1.5v-1.1h-5.6v1.1h1.1c-0.1,1.4-0.4,2.2-2,2.7
		c0.2,0.2,0.5,0.7,0.6,0.9c2-0.7,2.4-1.8,2.5-3.6h0.7v2.2c0,1,0.2,1.4,1.1,1.4h0.7c0.7,0,1-0.4,1.1-1.8c-0.3-0.1-0.8-0.3-1-0.4
		c0,1,0,1.2-0.2,1.2L324.2,84.7z"/>
	<path class="st4" d="M262,80.5c-0.1,0.5-0.3,1-0.5,1.4c-0.4-0.3-0.9-0.6-1.3-0.8c0.1-0.2,0.3-0.4,0.4-0.6H262z M265.2,84.7
		c-0.4,0-0.4-0.1-0.4-0.6v-1.9c0.9-0.5,1.9-1,2.7-1.6l-0.9-1c-0.5,0.4-1.1,0.9-1.8,1.4v-2.6h2.7v-1.1h-8.9v1.1h1.7
		c-0.4,1.2-1.1,2.6-2,3.4c0.3,0.2,0.7,0.5,0.9,0.8c0.2-0.2,0.3-0.3,0.5-0.5c0.5,0.3,1,0.6,1.4,0.9c-0.6,0.9-1.4,1.5-2.3,1.9
		c0.3,0.2,0.7,0.7,0.9,0.9c1.9-1,3.3-3,3.8-6.2l-0.8-0.3l-0.2,0h-1.2c0.1-0.3,0.3-0.7,0.4-1l-0.2,0h2.2v5.7c0,1.3,0.3,1.7,1.4,1.7
		h1.3c1,0,1.3-0.5,1.4-2.1c-0.3-0.1-0.8-0.3-1.1-0.5c0,1.2-0.1,1.5-0.5,1.5H265.2z M277.5,79.6v-1.2h-4v-1.9h-1.2v1.9h-3.9v1.2h1.1
		v3.8c0,1.7,0.7,2.1,2.4,2.1h3.4c0.7,0,1.6,0,1.9-0.1c-0.1-0.3-0.1-0.9-0.1-1.2c-0.4,0.1-1.1,0.1-1.7,0.1h-3.6c-0.8,0-1-0.3-1-0.9
		v-3.9L277.5,79.6z"/>
</g>
<g>
	<path class="st4" d="M62.1,76.5c-1.1,0.9-2,2.7-2,4.7c0,2,0.9,3.8,2,4.7v0H61c-1-0.9-1.9-2.7-1.9-4.7c0-2,0.8-3.8,1.9-4.7
		L62.1,76.5L62.1,76.5z"/>
	<path class="st4" d="M69.5,81.8c0.8,0.4,1.8,1.1,2.3,1.6l-1.1,0.8c-0.1-0.1-0.3-0.3-0.5-0.5l-2.4,0.1v2.1h-1.4v-2.1l-1.6,0l1.3,0.6
		c0,0-0.1,0.1-0.2,0.1c0,0,0,0-0.1,0c-0.6,0.5-1.5,1-2.3,1.3c-0.2-0.2-0.7-0.7-0.9-0.9c0.8-0.3,1.6-0.7,2.1-1.1l-1.3,0
		c0,0.1-0.1,0.1-0.2,0.2l-0.5-1.3h2l0.4-0.2c-0.5-0.4-1.1-0.7-1.6-1l1-0.7c0.1,0.1,0.2,0.1,0.4,0.2c0.3-0.2,0.5-0.4,0.7-0.5h-2.1
		v-3.8H71v3.8h-3.8l0.3,0.2c-0.1,0.1-0.1,0.1-0.3,0.1c-0.3,0.3-0.9,0.6-1.4,0.9c0.2,0.1,0.3,0.2,0.4,0.3c0.8-0.5,1.5-1,2.1-1.4
		l1.3,0.8c-0.1,0.1-0.2,0.1-0.3,0.1c-0.6,0.4-1.4,0.9-2.3,1.3l1.9,0c-0.2-0.1-0.3-0.2-0.5-0.3L69.5,81.8z M64.8,77.8v0.3h1.6v-0.3
		H64.8z M64.8,79.1v0.3h1.6v-0.3H64.8z M69.5,78.1v-0.3h-1.7v0.3H69.5z M69.5,79.5v-0.3h-1.7v0.3H69.5z M70.5,85.9
		c-0.5-0.4-1.5-1-2.2-1.4l1.1-0.7c0.7,0.3,1.7,0.9,2.3,1.3L70.5,85.9z"/>
	<path class="st4" d="M75.2,80.8c0.3,0.2,1.1,1.1,1.2,1.4l-0.8,1.1c-0.1-0.2-0.3-0.5-0.4-0.9v3.5h-1.4v-3.1
		c-0.3,0.6-0.5,1.2-0.8,1.6c-0.1-0.4-0.4-1-0.6-1.4c0.5-0.6,0.9-1.6,1.2-2.4h-1.1v-1.3h1.3v-0.9c-0.3,0.1-0.7,0.2-1,0.2
		c-0.1-0.3-0.3-0.8-0.4-1c1.1-0.3,2.3-0.7,3-1.2l1,1v-0.3h1.9v-0.7l1.7,0.1c0,0.1-0.1,0.2-0.3,0.2v0.4h1.8V78h-1.8v0.2h1.5v0.9h-1.5
		v0.2h2.2v1h-5.7v-1h2.1v-0.2h-1.5v-0.9h1.5V78h-1.9v-0.5c-0.1,0-0.1,0-0.2,0c-0.3,0.2-0.6,0.3-1,0.4v1.3H76v1.3h-0.8V80.8z
		 M81.3,84.4h-0.6c0.5,0.3,1.1,0.6,1.4,0.8l-1.4,0.7c-0.3-0.3-1-0.8-1.5-1.1l0.6-0.5h-1.6l0.7,0.4c0,0-0.1,0.1-0.2,0.1
		c-0.4,0.4-1.4,0.8-2.2,1c-0.2-0.3-0.5-0.7-0.8-0.9c0.5-0.1,1.1-0.3,1.6-0.6h-0.4v-3.8h4.5V84.4z M78.1,81.4v0.2h1.7v-0.2H78.1z
		 M78.1,82.4v0.3h1.7v-0.3H78.1z M78.1,83.3v0.3h1.7v-0.3H78.1z"/>
	<path class="st4" d="M82.2,85.9c1.1-0.9,2-2.7,2-4.7c0-2-0.9-3.8-2-4.7v-0.1h1.1c1,0.9,1.9,2.7,1.9,4.7c0,2-0.8,3.8-1.9,4.7
		L82.2,85.9L82.2,85.9z"/>
</g>
<g>
	<path class="st4" d="M213.9,84.5h3.9v1.1h-9.2v-1.1h3.8v-0.3h-3.1v-1.1h3.1v-0.3h-2.7v-3.2h2.7v-0.3h-3.7v-1.1h3.7v-0.3
		c-0.9,0-1.9,0.1-2.8,0.1c0-0.3-0.2-0.8-0.3-1.1c2.4,0,5.1-0.2,6.8-0.5l0.9,1.1c0,0-0.1,0-0.2,0c0,0-0.1,0-0.1,0
		c-0.8,0.1-1.8,0.2-2.8,0.3v0.4h3.8v1.1h-3.8v0.3h2.9v3.2h-2.9v0.3h3.3v1.1h-3.3V84.5z M211.1,80.5v0.3h1.3v-0.3H211.1z M211.1,81.9
		h1.3v-0.3h-1.3V81.9z M215.3,80.5h-1.4v0.3h1.4V80.5z M215.3,81.9v-0.3h-1.4v0.3H215.3z"/>
	<path class="st4" d="M221.4,78.8v1.7c0,1.6-0.2,4-1.6,5.4c-0.2-0.3-0.8-0.8-1-1c0.6-0.6,0.9-1.3,1.1-2c-0.3,0.2-0.5,0.3-0.8,0.4
		c0,0.1-0.1,0.2-0.2,0.2l-0.4-1.5c0.4-0.2,1-0.4,1.6-0.7c0-0.3,0-0.6,0-1.1l-0.9,0.5c-0.1-0.5-0.3-1.3-0.6-1.9l1-0.5
		c0.2,0.4,0.4,0.8,0.5,1.2v-2h2.9v-1.1l1.8,0.1c0,0.1-0.1,0.2-0.3,0.2v0.8h3.5v1.3H221.4z M225.5,84.5h2.4v1.3h-6.8v-1.3h0.9v-3
		l1.6,0.1c0,0.1-0.1,0.2-0.3,0.2v2.7h0.8v-3.8h-2.3v-1.2h5.8v1.2h-2.1v1.1h2V83h-2V84.5z"/>
</g>
<g>
	<path class="st4" d="M104.2,65.6h3.6c0,2,0.3,5.6,3.9,7.7c-0.3,0.3-0.9,0.9-1.2,1.3c-1.9-1.1-3-2.9-3.5-4.7
		c-0.7,2.1-1.9,3.7-3.6,4.7c-0.3-0.3-0.8-0.9-1.2-1.1c1.9-1,3.1-3,3.6-5.5l0.7,0.2c-0.1-0.4-0.1-0.7-0.1-1h-2.2V65.6z"/>
	<path class="st4" d="M115.7,68.4v-1.9c-0.2,0.8-0.4,1.6-0.7,2.3c0.6,0.7,0.8,1.3,0.8,1.9c0,1.7-1.1,1.7-1.8,1.7
		c0-0.3-0.1-0.8-0.2-1.1v3.3h-1.3v-9.1h2.2l0.2,0l0.9,0.4c0,0.1,0,0.1-0.1,0.2l0,0.1h2.1v-1.1l1.7,0.1c0,0.1-0.1,0.2-0.3,0.2v0.8
		h2.3v2.2h-0.7v0.9h-4.4v-0.9H115.7z M113.8,66.8v4.4c0.1,0,0.2,0,0.3,0c0.3,0,0.4-0.1,0.4-0.6c0-0.4-0.2-1-0.7-1.6
		c0.2-0.6,0.3-1.4,0.5-2.1H113.8z M120.1,72.8c0,0.3,0,0.3,0.1,0.3h0.1c0.1,0,0.1-0.1,0.2-1.1c0.3,0.2,0.8,0.4,1.2,0.5
		c-0.1,1.4-0.5,1.8-1.2,1.8h-0.6c-1,0-1.2-0.4-1.2-1.6v-1.7h-0.5c-0.1,1.6-0.5,2.8-2.5,3.5c-0.1-0.3-0.5-0.9-0.8-1.1
		c1.5-0.4,1.8-1.1,1.9-2.3h-1v-1.3h5.6v1.3h-1.4V72.8z M120.2,67.4H117V68h3.2V67.4z"/>
	<path class="st4" d="M125.8,69.8c0,0.8-0.6,1.4-1.4,1.4s-1.4-0.6-1.4-1.4s0.6-1.4,1.4-1.4C125.1,68.4,125.8,69.1,125.8,69.8z"/>
	<path class="st4" d="M103.7,76.8h2.9c0,1.6,0.2,4.5,3.1,6.1c-0.3,0.2-0.7,0.7-0.9,1c-1.5-0.9-2.4-2.3-2.8-3.7
		c-0.6,1.7-1.5,3-2.9,3.8c-0.2-0.2-0.7-0.7-1-0.9c1.6-0.8,2.5-2.4,2.9-4.4l0.6,0.1c0-0.3-0.1-0.6-0.1-0.8h-1.8V76.8z"/>
	<path class="st4" d="M112.9,79.1v-1.6c-0.2,0.6-0.4,1.3-0.5,1.8c0.5,0.6,0.6,1,0.6,1.5c0,1.3-0.8,1.3-1.4,1.3
		c0-0.3-0.1-0.6-0.2-0.9V84h-1v-7.3h1.8l0.2,0l0.7,0.4c0,0.1,0,0.1-0.1,0.1l0,0.1h1.7v-0.9l1.4,0.1c0,0.1-0.1,0.1-0.2,0.2v0.7h1.8
		v1.8H117v0.7h-3.5v-0.7H112.9z M111.4,77.8v3.5c0.1,0,0.2,0,0.3,0c0.2,0,0.3-0.1,0.3-0.5c0-0.3-0.2-0.8-0.6-1.3
		c0.1-0.5,0.3-1.2,0.4-1.7H111.4z M116.4,82.5c0,0.3,0,0.3,0.1,0.3h0.1c0.1,0,0.1-0.1,0.1-0.9c0.2,0.2,0.7,0.4,1,0.4
		c-0.1,1.1-0.4,1.4-1,1.4h-0.4c-0.8,0-1-0.3-1-1.3v-1.3h-0.4c-0.1,1.3-0.4,2.2-2,2.8c-0.1-0.3-0.4-0.7-0.6-0.9
		c1.2-0.3,1.5-0.9,1.6-1.9H113v-1h4.5v1h-1.1V82.5z M116.5,78.3h-2.6v0.5h2.6V78.3z"/>
	<path class="st4" d="M120.8,77.7v0.9h-2.7v-0.9H120.8z M125.4,76.7v6.1c0,1-0.3,1.2-1.6,1.2c0-0.3-0.2-0.8-0.3-1.1
		c0.2,0,0.4,0,0.5,0c0.3,0,0.4,0,0.4-0.1v-5.1h-2.3v2.1c0,1.3-0.1,3.2-0.7,4.3c-0.2-0.2-0.6-0.5-0.8-0.6v0.1h-1.3v0.3h-0.9v-2.8h2.2
		v2.2c0.4-1,0.5-2.4,0.5-3.5v-3.1H125.4z M120.6,78.9v0.9h-2.2v-0.9H120.6z M118.4,80.8V80h2.2v0.9H118.4z M120.5,76.6v0.9h-2.1
		v-0.9H120.5z M119.6,82.7V82h-0.4v0.7H119.6z M122.2,79.4h0.5V79h-0.5v-0.8h0.5v-0.5l1.1,0.1c0,0.1-0.1,0.1-0.2,0.1v0.3h0.5V79
		h-0.5v0.4h0.5v0.8h-1.9V79.4z M124.2,82.7H123V83h-0.8v-2.4h1.9V82.7z M123.4,81.4H123v0.5h0.3V81.4z"/>
	<path class="st4" d="M127.6,80.6v-0.5c-0.3,0.2-0.6,0.4-0.9,0.6c-0.1-0.2-0.4-0.6-0.6-0.7c0.4-0.1,0.8-0.4,1.2-0.6h-0.8v-1.6h1.1
		v-0.2h-1.4v-0.8h1.4v-0.4l1.2,0.1c0,0.1-0.1,0.1-0.2,0.2v0.2h1.5v0.8h-1.5v0.2h1.2v0.6c0.4-0.5,0.7-1.2,0.9-2l1.2,0.3
		c0,0.1-0.1,0.1-0.2,0.1c0,0.2-0.1,0.3-0.1,0.5h2v0.9H133c-0.1,0.4-0.3,0.8-0.6,1.2c0.3,0.2,0.7,0.4,1.2,0.5
		c-0.2,0.2-0.5,0.6-0.6,0.9c-0.5-0.2-0.9-0.4-1.2-0.7c-0.4,0.3-0.8,0.5-1.4,0.7c-0.1-0.2-0.4-0.6-0.6-0.8c0.5-0.1,1-0.3,1.3-0.6
		c-0.1-0.2-0.2-0.3-0.3-0.5c-0.1,0.1-0.2,0.2-0.3,0.3c-0.1-0.2-0.4-0.5-0.6-0.7v0.8h-0.9c0.3,0.2,0.7,0.4,0.9,0.5l-0.5,0.7
		c-0.2-0.1-0.4-0.3-0.7-0.5v0.6H127.6z M130.4,82.7V83h3.1v0.9h-7.3V83h1.1v-1.1l1.3,0.1c0,0.1-0.1,0.1-0.2,0.2V83h0.9v-1.3h-2.6
		v-0.9h6.4v0.9h-2.6v0.2h1.9v0.8H130.4z M127.4,78.4v0.3h0.2v-0.3H127.4z M128.9,78.4h-0.3v0.3h0.3V78.4z M131.2,78.2
		c0.1,0.2,0.2,0.4,0.4,0.5c0.1-0.2,0.2-0.3,0.2-0.5H131.2z"/>
	<path class="st4" d="M138.4,77.8h2.8v4.2H140v-0.4h-1.6V84h-1.2v-2.4h-1.5V82h-1.2v-4.2h2.7v-1.4l1.5,0.1c0,0.1-0.1,0.1-0.3,0.2
		V77.8z M135.7,80.4h1.5v-1.5h-1.5V80.4z M138.4,80.4h1.6v-1.5h-1.6V80.4z"/>
</g>
</svg>
