<svg fill="none" height="120" viewBox="0 0 340 120" width="340" xmlns="http://www.w3.org/2000/svg" xmlns:xlink="http://www.w3.org/1999/xlink"><mask id="a" fill="#fff"><path clip-rule="evenodd" d="m141 24h-43v96h47v-76h97v-20h-97z" fill="#fff" fill-rule="evenodd"/></mask><mask id="b" fill="#fff"><path clip-rule="evenodd" d="m340 0h-291v17 5 98h47v-98h244z" fill="#fff" fill-rule="evenodd"/></mask><path clip-rule="evenodd" d="m141 24h-43v96h47v-76h97v-20h-97z" fill="#fff" fill-rule="evenodd"/><path d="m98 24v-2h-2v2zm0 96h-2v2h2zm47 0v2h2v-2zm0-76v-2h-2v2zm97 0v2h2v-2zm0-20h2v-2h-2zm-144 2h43v-4h-43zm2 94v-96h-4v96zm45-2h-47v4h47zm-2-74v76h4v-76zm99-2h-97v4h97zm-2-18v20h4v-20zm-95 2h97v-4h-97zm-4 0h4v-4h-4z" fill="#364c97" mask="url(#a)"/><path d="m109.31 77.09v1.21h2.28c.03.34.07.7.14 1.08l-.61-.11c-.55 2.63-1.74 4.56-3.82 5.61.31.23.87.72 1.09.97 1.74-1.04 2.94-2.7 3.69-4.94.55 1.79 1.61 3.68 3.68 4.93.21-.31.7-.83.96-1.04-3.68-2.17-3.95-5.82-3.95-7.71zm16.16 2.36h-3.62v-.82h3.62zm-4.68-1.83v1.97h.74v.88h4.26v-.89h.77v-1.96h-2.39v-1.05h-1.15v1.05zm-.71-.71-.17.05h-2.17v8.91h1.03v-7.85h.78c-.16.68-.37 1.55-.57 2.18.56.67.69 1.29.69 1.75 0 .28-.04.48-.15.56-.08.06-.17.08-.28.09-.13 0-.26 0-.44-.01.16.28.25.73.26 1.01.23.01.47 0 .64-.02.23-.04.42-.1.58-.21.31-.22.44-.64.44-1.28 0-.58-.13-1.25-.73-2.01.28-.78.61-1.87.87-2.72zm5.09 7.82c-.14 0-.16-.03-.16-.32v-2.16h1.5v-1.06h-5.57v1.06h1.1c-.1 1.39-.4 2.2-2 2.68.24.21.53.65.63.93 1.95-.65 2.37-1.8 2.49-3.61h.74v2.17c0 1.02.19 1.36 1.06 1.36h.67c.71 0 .97-.38 1.07-1.78-.29-.07-.77-.26-.99-.44-.02 1.02-.05 1.17-.21 1.17zm7.44-3.15v-2.15h2.26v2.15zm-3.51 0v-2.15h2.25v2.15zm3.51-3.32v-1.73h-1.26v1.73h-3.45v5.04h1.2v-.55h2.25v3.12h1.26v-3.12h2.26v.5h1.25v-4.99z" fill="#364c97"/><path d="m148 47h44v72h-44z" fill="#fff" stroke="#364c97" stroke-width="2"/><path d="m162.69 71.35h1.54v-1h-1.54v-1.11h-1.18v1.11h-1.51v1h1.51v1.25h-2.04v1.05h5.21v-1.05h-1.99zm.26-5.35c-.22.47-.52.89-.87 1.26-.34-.37-.62-.8-.83-1.26zm-4.29 2.47h-.74v-.6h.74zm0 1.37h-.74v-.61h.74zm-2.26-.61h.71v.61h-.71zm0-1.36h.71v.6h-.71zm7.27-2.93-.2.04h-3.59v1.02h1.16l-.79.21c.27.65.61 1.23 1.03 1.73-.51.35-1.1.63-1.73.81v-1.7h-1.5v-.55h1.57v-1.03h-1.57v-.94h-1.06v.94h-1.54v1.03h1.54v.55h-1.44v3.61h1.44v.6h-1.66v1.04h1.66v1.57h1.06v-1.57h1.65v-1.04h-1.65v-.6h1.5v-1.62c.16.23.34.51.43.71.78-.25 1.49-.59 2.11-1.04.57.44 1.24.78 2.02 1 .15-.29.46-.73.71-.96-.71-.17-1.34-.43-1.88-.78.67-.71 1.18-1.61 1.49-2.74zm4.36 1.76h6.63v-1.07h-3.55v-1.09h-1.26v1.09h-2.96v2.4c-.13-.48-.4-1.09-.67-1.58l-.86.42c.3.62.59 1.41.68 1.9l.85-.45v.28c0 .3 0 .61-.02.93-.6.3-1.18.57-1.59.75l.34 1.12c.35-.2.72-.42 1.09-.65-.17.84-.5 1.67-1.15 2.33.23.14.69.56.86.79 1.38-1.37 1.61-3.66 1.61-5.26zm4.05 5.9v-1.78h2.14v-1h-2.14v-1.36h2.28v-1h-5.84v1h2.42v4.14h-1.02v-3.12h-1.08v3.12h-1.03v1.03h6.87v-1.03zm7.92-4.68c-.7 0-1.28.58-1.28 1.28s.58 1.28 1.28 1.28 1.28-.58 1.28-1.28-.58-1.28-1.28-1.28zm-19.39 13.66v-2.15h2.26v2.15zm-3.51 0v-2.15h2.25v2.15zm3.51-3.32v-1.73h-1.26v1.73h-3.45v5.04h1.2v-.55h2.25v3.12h1.26v-3.12h2.26v.5h1.25v-4.99zm13.95 3.69v-1.01h-3.95v-.57h3.03v-.98h-3.03v-.4c.21-.22.4-.48.59-.77h.39c.26.36.51.78.62 1.06l1.02-.43c-.08-.17-.22-.4-.38-.63h1.66v-.97h-2.76c.08-.17.16-.35.21-.51l-1.14-.29c-.2.57-.53 1.15-.93 1.61v-.81h-2.19c.09-.17.17-.33.24-.5l-1.14-.3c-.35.85-.94 1.71-1.59 2.25.27.14.76.47.99.66.3-.31.63-.7.93-1.14h.1c.19.36.39.77.46 1.05l1.02-.42c-.06-.17-.17-.4-.3-.63h1.34c-.11.12-.23.24-.36.34.15.08.37.22.58.35h-.6v.48h-2.9v.98h2.9v.57h-3.91v1.01h5.88v.6h-5.5v1h1.84l-.53.4c.58.43 1.23 1.05 1.51 1.5l.92-.74c-.25-.35-.73-.8-1.21-1.16h2.97v1.06c0 .12-.05.16-.21.16s-.76 0-1.27-.02c.16.31.36.77.43 1.11.74 0 1.31-.01 1.73-.18.43-.18.55-.46.55-1.05v-1.08h1.69v-1h-1.69v-.6zm3.47-3.25h6.63v-1.07h-3.55v-1.09h-1.26v1.09h-2.96v2.4c-.13-.48-.4-1.09-.67-1.58l-.86.42c.3.62.59 1.41.68 1.9l.85-.45v.28c0 .3 0 .61-.02.93-.6.3-1.18.57-1.59.75l.34 1.12c.35-.2.72-.42 1.09-.65-.17.84-.5 1.67-1.15 2.33.23.14.69.56.86.79 1.38-1.37 1.61-3.66 1.61-5.26zm4.05 5.9v-1.78h2.14v-1h-2.14v-1.36h2.28v-1h-5.84v1h2.42v4.14h-1.02v-3.12h-1.08v3.12h-1.03v1.03h6.87v-1.03z" fill="#364c97"/><path d="m196 47h45v72h-45z" fill="#fff" stroke="#364c97" stroke-width="2"/><path d="m1 1h45v118h-45z" fill="#fff" stroke="#333" stroke-width="2"/><path d="m9.08 70.29v-.94h.99v.6c0 .11 0 .23-.01.34zm3.12-.94v.94h-1.07c.01-.1.01-.21.01-.31v-.63zm-2.76-2.53c.47-.4.88-.84 1.16-1.26.3.42.73.87 1.21 1.26zm3.83 4.38v-2.76h-2.13v-.64h1.32v-.49c.26.17.53.33.79.46.16-.32.39-.76.61-1.04-1.04-.39-2.06-1.23-2.75-2.19h-1.08c-.48.77-1.35 1.62-2.32 2.11v-.07h-.91v-2.05h-1.1v2.05h-1.22v1.1h1.15c-.26 1.19-.8 2.57-1.38 3.36.18.28.43.74.54 1.06.34-.48.65-1.17.91-1.92v3.68h1.1v-4.25c.21.42.41.85.52 1.14l.6-.92c-.15-.25-.85-1.32-1.12-1.67v-.48h.91v-.48c.12.2.22.41.29.58.28-.14.55-.3.82-.49v.51h1.25v.64h-2.02v2.76h1.83c-.28.71-.95 1.36-2.48 1.84.18.19.52.64.63.88 1.47-.47 2.27-1.18 2.69-1.98.61 1.08 1.4 1.59 2.39 1.97.13-.35.41-.74.68-.99-.96-.3-1.71-.68-2.29-1.72zm2.94-2.4c.83-.5 1.58-1.15 2.17-1.88v1.61h1.17v-1.57c.61.72 1.38 1.36 2.23 1.84zm1.09 3.85v-.42h3.36v.42zm0-1.66h3.36v.42h-3.36zm3.36-.82h-3.36v-.4h3.36zm2.8-3.5v-1.03h-3.91v-1.11h-1.17v1.11h-3.83v1.03h2.69c-.77.77-1.87 1.44-2.97 1.8.25.22.57.65.74.92.39-.15.76-.34 1.13-.55v3.81h-1.65v1.04h9.04v-1.04h-1.64v-3.79c.34.19.69.36 1.05.49.18-.3.52-.74.77-.95-1.14-.35-2.27-.98-3.07-1.73zm2.45.57v-.79h6.12v.79h-2.49v-.57h-1.19v.57zm7.49 4.18v-1.03h-3.95c.05-.21.07-.42.08-.63h2.73v-.96h-2.72v-.6h2.92v-.66h.8v-2.13h-3.66v-.87h-1.22v.87h-3.65v2.13h.89v.66h2.73v.6h-2.57v.96h2.56c-.02.21-.05.42-.1.63h-3.59v1.03h3.01c-.55.59-1.51 1.11-3.19 1.49.26.25.6.7.74.96 2.04-.55 3.15-1.34 3.74-2.23.79 1.24 1.98 1.95 3.88 2.25.15-.32.46-.79.7-1.04-1.58-.17-2.7-.63-3.41-1.43zm4.84-1.75.02-1v-.45h-1.8c.01-.35.02-.71.03-1.07h1.91c-.1.13-.21.25-.32.36.26.18.7.62.89.84l.09-.1v1.04zm2.44 3.18c-.5 0-.57-.06-.57-.47v-2.41l.54-.25v2.33h.99v-2.79l.64-.3c-.01.95-.01 1.5-.03 1.59-.01.13-.06.15-.14.15s-.22 0-.34-.01c.11.22.19.6.21.87.27 0 .59-.01.83-.11.27-.11.41-.33.43-.69.03-.3.03-1.32.04-2.74l.04-.16-.74-.26-.18.13-.04.03-.72.33v-.97h-.99v1.43l-.54.25v-.96h-.73c.21-.29.4-.62.57-.97h3.59v-1.08h-3.14c.11-.34.22-.69.3-1.04l-1.17-.22c-.18.82-.48 1.62-.89 2.27v-.75h-1.56v-1.51h-1.14v1.51h-1.53v1.1h.96c-.03 2.31-.12 4.51-1.11 5.88.29.19.66.55.85.83.83-1.14 1.15-2.76 1.29-4.56h.78c-.04 2.35-.1 3.19-.23 3.39-.08.13-.16.16-.29.16s-.41 0-.72-.04c.16.29.27.73.29 1.06.4 0 .78.01 1.03-.05.27-.05.46-.15.64-.41.23-.32.3-1.28.34-3.73l.41.97.41-.19v1.92c0 1.14.32 1.46 1.5 1.46h1.75c.97 0 1.27-.38 1.4-1.63-.29-.07-.72-.24-.96-.41-.06.88-.14 1.05-.53 1.05zm-22.51 3.91c-.07 1.32.07 5.86-3.92 8.07.4.28.79.64 1 .95 2.11-1.29 3.16-3.22 3.7-5.02.56 1.84 1.68 3.9 3.94 5.02.19-.32.55-.73.92-1.01-3.73-1.75-4.23-6.06-4.31-7.44.01-.21.02-.41.03-.57zm11.19 5.92v-.96c.06.06.1.11.14.15.16-.22.32-.46.46-.72.18.72.4 1.38.68 1.97-.44.62-1.02 1.12-1.76 1.51-.23-.17-.52-.35-.83-.53.25-.39.42-.86.53-1.42zm-2.87 0h.97c-.09.36-.22.66-.38.91-.29-.14-.58-.26-.88-.38zm5.38-3.25c-.11.88-.29 1.67-.54 2.35-.27-.72-.47-1.51-.61-2.35zm1.79 0v-1.1h-2.66c.13-.53.24-1.08.32-1.64l-1.2-.16c-.24 1.78-.72 3.48-1.57 4.5.22.15.58.46.81.69h-2.38l.24-.48-.43-.09h.64v-1.21c.39.31.81.66 1.03.87l.63-.82c-.22-.15-.93-.57-1.41-.84h1.64v-.94h-.95c.24-.31.55-.73.86-1.16l-1-.4c-.16.38-.44.91-.67 1.27l.66.29h-.79v-1.68h-1.09v1.68h-.84l.64-.28c-.08-.35-.34-.86-.6-1.24l-.86.36c.21.36.43.82.52 1.16h-.76v.94h1.56c-.48.52-1.15 1-1.76 1.25.22.21.47.6.6.86.5-.28 1.04-.7 1.5-1.16v.96l-.22-.05c-.1.22-.22.46-.34.71h-1.45v.96h.95c-.25.48-.5.93-.72 1.28l1.04.32.11-.19c.19.08.38.17.56.27-.47.27-1.09.43-1.9.54.19.24.4.64.47.98 1.07-.22 1.87-.51 2.46-.95.41.26.77.52 1.04.75l.45-.46c.16.24.31.51.38.68.87-.44 1.56-.98 2.11-1.64.45.65 1 1.18 1.68 1.59.18-.33.55-.79.82-1.03-.73-.38-1.31-.95-1.77-1.66.54-1.01.88-2.25 1.09-3.73z" fill="#4d4d4d"/><path d="m12.9551 93.2144c0 .4485-.1122.8463-.3364 1.1933-.2243.347-.5333.6242-.9268.8316.4486.2158.804.5141 1.0664.895.2624.3766.3936.8209.3936 1.333 0 .8209-.2793 1.4705-.8379 1.9487-.5586.474-1.3182.711-2.2788.711-.96066 0-1.72237-.2391-2.2852-.7173s-.84424-1.1257-.84424-1.9424c0-.5121.13119-.9585.39356-1.3394.26237-.3808.61572-.6771 1.06006-.8886-.39356-.2074-.70248-.4846-.92676-.8316-.22005-.347-.33008-.7448-.33008-1.1933 0-.7872.26237-1.4135.78711-1.879.52474-.4697 1.23779-.7045 2.13915-.7045.8971 0 1.6081.2327 2.1328.6982.529.4613.7935 1.0897.7935 1.8853zm-1.6441 4.1196c0-.402-.1163-.7236-.3491-.9649-.2327-.2412-.5459-.3618-.9394-.3618-.38936 0-.7004.1206-.93314.3618-.23275.237-.34913.5586-.34913.9649 0 .3935.11426.7109.34278.9521.22851.2412.5459.3618.95219.3618.3977 0 .7088-.1163.9331-.3491.2285-.2327.3427-.5543.3427-.9648zm-.1904-4.0308c0-.3597-.0952-.6474-.2856-.8633-.1905-.22-.4592-.33-.8062-.33-.34276 0-.60937.1058-.7998.3173-.19043.2116-.28564.5036-.28564.876 0 .3682.09521.6644.28564.8887s.45915.3364.8062.3364c.347 0 .6136-.1121.7998-.3364.1904-.2243.2856-.5205.2856-.8887zm9.4961 2.8755c0 1.278-.2645 2.2555-.7935 2.9326-.5289.6771-1.3033 1.0157-2.3232 1.0157-1.0072 0-1.7773-.3322-2.3105-.9966-.5333-.6644-.8062-1.6166-.8189-2.8565v-1.7011c0-1.2907.2666-2.2704.7998-2.939.5374-.6686 1.3097-1.0029 2.3169-1.0029s1.7773.3322 2.3106.9965c.5332.6602.8061 1.6102.8188 2.8501zm-1.8345-1.8662c0-.766-.1058-1.3224-.3174-1.6694-.2073-.3513-.5332-.5269-.9775-.5269-.4316 0-.7511.1672-.9585.5015-.2031.3301-.311.8484-.3237 1.5552v2.247c0 .7533.1015 1.314.3047 1.6822.2073.3639.5374.5458.9902.5458.4486 0 .7723-.1756.9712-.5268s.3026-.8887.311-1.6123zm7.5347 5.6875h-1.8345v-7.0713l-2.1899.6792v-1.4917l3.8276-1.3711h.1968zm6.5504-8.24c-.07 1.32.07 5.86-3.92 8.07.4.28.79.64 1 .95 2.11-1.29 3.16-3.22 3.7-5.02.56 1.84 1.68 3.9 3.94 5.02.19-.32.55-.73.92-1.01-3.73-1.75-4.23-6.06-4.31-7.44.01-.21.02-.41.03-.57z" fill="#4d4d4d"/><path clip-rule="evenodd" d="m340 0h-291v17 5 98h47v-98h244z" fill="#fff" fill-rule="evenodd"/><path d="m49 0v-2h-2v2zm291 0h2v-2h-2zm-291 120h-2v2h2zm47 0v2h2v-2zm0-98v-2h-2v2zm244 0v2h2v-2zm-291-20h291v-4h-291zm2 15v-17h-4v17zm0 5v-5h-4v5zm0 98v-98h-4v98zm45-2h-47v4h47zm-2-96v98h4v-98zm246-2h-244v4h244zm-2-20v22h4v-22z" fill="#364c97" mask="url(#b)"/><path d="m60.83 78.21h-2.27v-.48h2.27zm0 1.27h-2.27v-.49h2.27zm1.14-2.58h-4.47v3.41h4.47zm.7 4.73v-.93h-5.95v.93h1.05c-.3.53-.72.99-1.2 1.37.1-.23.15-.53.15-.91 0-.58-.13-1.25-.73-2.01.28-.78.61-1.87.87-2.72l-.78-.45-.17.05h-2.17v8.91h1.03v-7.85h.78c-.16.68-.37 1.55-.57 2.18.56.67.69 1.29.69 1.75 0 .28-.04.48-.15.56-.08.06-.17.08-.28.09-.13 0-.26 0-.44-.01.16.28.25.73.26 1.01.23.01.47 0 .64-.02.21-.04.38-.09.53-.18.21.19.48.47.61.63.4-.27.78-.61 1.12-1.01h.48c-.49.77-1.22 1.44-2.02 1.88.19.17.51.56.65.74.94-.6 1.86-1.54 2.44-2.62h.5c-.38.87-.97 1.65-1.67 2.16.2.16.57.48.73.66.8-.66 1.51-1.67 1.97-2.82h.24c-.08 1.17-.17 1.65-.29 1.79-.08.1-.15.12-.28.12s-.36-.01-.64-.04c.14.26.25.67.26.98.38.01.74 0 .96-.03.24-.05.43-.12.61-.35.25-.28.38-1.07.48-2.99l.03-.4h-3.8c.09-.15.18-.31.25-.47zm7.59 2.79v-2h1.83v-1.11h-1.83v-1.64h2.04v-1.12h-2.04v-1.96h-1.19v1.96h-.8c.1-.45.18-.92.25-1.39l-1.16-.16c-.1.85-.28 1.71-.53 2.44-.14-.39-.35-.87-.55-1.26l-.58.24v-1.89h-1.19v2.04l-.84-.12c-.07.82-.25 1.94-.49 2.6l.88.32c.23-.71.39-1.81.45-2.65v7.15h1.19v-6.83c.17.41.32.85.38 1.15l.57-.26c-.1.21-.2.4-.3.58.28.12.82.39 1.06.54.21-.38.41-.86.56-1.38h1.1v1.64h-1.93v1.11h1.93v2h-2.67v1.13h6.22v-1.13zm7.65-5.78h1.63c-.34.32-.7.62-1.08.91h-.55zm2.18 4.37h-3.44v-.64h3.44zm-3.44 1.58v-.68h3.44v.68zm5.83-3.99v-1.05h-2.32c.73-.67 1.4-1.41 1.97-2.2l-1.02-.52c-.31.44-.65.86-1.03 1.27v-.49h-2.17v-1.08h-1.18v1.08h-2.35v1.03h2.35v.91h-3.21v1.05h3.4c-1.15.68-2.4 1.25-3.71 1.66.22.24.58.72.72.98.51-.19 1.03-.41 1.53-.63v3.27h1.19v-.3h3.44v.26h1.25v-4.44h-3.64c.41-.26.79-.52 1.18-.8zm5.88 2.08v-.96c.06.06.1.11.14.15.16-.22.32-.46.46-.72.18.72.4 1.38.68 1.97-.44.62-1.02 1.12-1.76 1.51-.23-.17-.52-.35-.83-.53.25-.39.42-.86.53-1.42zm-2.87 0h.97c-.09.36-.22.66-.38.91-.29-.14-.58-.26-.88-.38zm5.38-3.25c-.11.88-.29 1.67-.54 2.35-.27-.72-.47-1.51-.61-2.35zm1.79 0v-1.1h-2.66c.13-.53.24-1.08.32-1.64l-1.2-.16c-.24 1.78-.72 3.48-1.57 4.5.22.15.58.46.81.69h-2.38l.24-.48-.43-.09h.64v-1.21c.39.31.81.66 1.03.87l.63-.82c-.22-.15-.93-.57-1.41-.84h1.64v-.94h-.95c.24-.31.55-.73.86-1.16l-1-.4c-.16.38-.44.91-.67 1.27l.66.29h-.79v-1.68h-1.09v1.68h-.84l.64-.28c-.08-.35-.34-.86-.6-1.24l-.86.36c.21.36.43.82.52 1.16h-.76v.94h1.56c-.48.52-1.15 1-1.76 1.25.22.21.47.6.6.86.5-.28 1.04-.7 1.5-1.16v.96l-.22-.05c-.1.22-.22.46-.34.71h-1.45v.96h.95c-.25.48-.5.93-.72 1.28l1.04.32.11-.19c.19.08.38.17.56.27-.47.27-1.09.43-1.9.54.19.24.4.64.47.98 1.07-.22 1.87-.51 2.46-.95.41.26.77.52 1.04.75l.45-.46c.16.24.31.51.38.68.87-.44 1.56-.98 2.11-1.64.45.65 1 1.18 1.68 1.59.18-.33.55-.79.82-1.03-.73-.38-1.31-.95-1.77-1.66.54-1.01.88-2.25 1.09-3.73z" fill="#364c97"/><path d="m214.05 80.8h.8c.19.6.42 1.14.72 1.61-.51.1-1.03.21-1.52.31zm2.51-2.93v.52h-2.51v-.52zm.79 2.93c-.29.26-.67.55-1.01.78-.16-.24-.3-.5-.41-.78zm-3.3-1v-.55h2.51v.55zm-1.58 4.38c.93-.22 2.11-.49 3.23-.76l-.08-.93c.52.8 1.24 1.39 2.23 1.75.16-.32.5-.78.75-1.02-.68-.19-1.23-.51-1.67-.93.48-.26 1.04-.61 1.55-.94l-.76-.63v-3.85h-4.82v6.07c-.22.04-.43.08-.62.11zm-.4-5.89c-.35-.47-1.08-1.09-1.67-1.51l-.88.72c.59.44 1.3 1.1 1.6 1.58zm-.29 2.12h-2.31v1.09h1.15v2.11c-.44.34-.94.67-1.37.92l.58 1.24c.55-.42.99-.81 1.43-1.2.65.78 1.47 1.06 2.7 1.11 1.19.05 3.2.03 4.4-.03.06-.34.24-.92.37-1.2-1.33.1-3.58.13-4.75.08-1.04-.04-1.79-.31-2.2-.98zm15.69-.96h-3.62v-.82h3.62zm-4.68-1.83v1.97h.74v.88h4.26v-.89h.77v-1.96h-2.39v-1.05h-1.15v1.05zm-.71-.71-.17.05h-2.17v8.91h1.03v-7.85h.78c-.16.68-.37 1.55-.57 2.18.56.67.69 1.29.69 1.75 0 .28-.04.48-.15.56-.08.06-.17.08-.28.09-.13 0-.26 0-.44-.01.16.28.25.73.26 1.01.23.01.47 0 .64-.02.23-.04.42-.1.58-.21.31-.22.44-.64.44-1.28 0-.58-.13-1.25-.73-2.01.28-.78.61-1.87.87-2.72zm5.09 7.82c-.14 0-.16-.03-.16-.32v-2.16h1.5v-1.06h-5.57v1.06h1.1c-.1 1.39-.4 2.2-2 2.68.24.21.53.65.63.93 1.95-.65 2.37-1.8 2.49-3.61h.74v2.17c0 1.02.19 1.36 1.06 1.36h.67c.71 0 .97-.38 1.07-1.78-.29-.07-.77-.26-.99-.44-.02 1.02-.05 1.17-.21 1.17z" fill="#364c97"/><path d="m245 25h45v94h-45z" stroke="#364c97" stroke-width="2"/><path d="m294 25h45v94h-45z" stroke="#364c97" stroke-width="2"/><g fill="#364c97"><path d="m309.05 78.8h.8c.19.6.42 1.14.72 1.61-.51.1-1.03.21-1.52.31zm2.51-2.93v.52h-2.51v-.52zm.79 2.93c-.29.26-.67.55-1.01.78-.16-.24-.3-.5-.41-.78zm-3.3-1v-.55h2.51v.55zm-1.58 4.38c.93-.22 2.11-.49 3.23-.76l-.08-.93c.52.8 1.24 1.39 2.23 1.75.16-.32.5-.78.75-1.02-.68-.19-1.23-.51-1.67-.93.48-.26 1.04-.61 1.55-.94l-.76-.63v-3.85h-4.82v6.07c-.22.04-.43.08-.62.11zm-.4-5.89c-.35-.47-1.08-1.09-1.67-1.51l-.88.72c.59.44 1.3 1.1 1.6 1.58zm-.29 2.12h-2.31v1.09h1.15v2.11c-.44.34-.94.67-1.37.92l.58 1.24c.55-.42.99-.81 1.43-1.2.65.78 1.47 1.06 2.7 1.11 1.19.05 3.2.03 4.4-.03.06-.34.24-.92.37-1.2-1.33.1-3.58.13-4.75.08-1.04-.04-1.79-.31-2.2-.98zm15.69-.96h-3.62v-.82h3.62zm-4.68-1.83v1.97h.74v.88h4.26v-.89h.77v-1.96h-2.39v-1.05h-1.15v1.05zm-.71-.71-.17.05h-2.17v8.91h1.03v-7.85h.78c-.16.68-.37 1.55-.57 2.18.56.67.69 1.29.69 1.75 0 .28-.04.48-.15.56-.08.06-.17.08-.28.09-.13 0-.26 0-.44-.01.16.28.25.73.26 1.01.23.01.47 0 .64-.02.23-.04.42-.1.58-.21.31-.22.44-.64.44-1.28 0-.58-.13-1.25-.73-2.01.28-.78.61-1.87.87-2.72zm5.09 7.82c-.14 0-.16-.03-.16-.32v-2.16h1.5v-1.06h-5.57v1.06h1.1c-.1 1.39-.4 2.2-2 2.68.24.21.53.65.63.93 1.95-.65 2.37-1.8 2.49-3.61h.74v2.17c0 1.02.19 1.36 1.06 1.36h.67c.71 0 .97-.38 1.07-1.78-.29-.07-.77-.26-.99-.44-.02 1.02-.05 1.17-.21 1.17z"/><path d="m65.5298 94.5664h.9775c.4655 0 .8104-.1164 1.0347-.3491.2243-.2328.3364-.5417.3364-.9268 0-.3724-.1121-.6622-.3364-.8696-.2201-.2074-.5247-.311-.9141-.311-.3512 0-.6453.0973-.8823.292-.237.1904-.3555.4401-.3555.749h-1.8344c0-.4824.129-.9141.3872-1.2949.2623-.3851.6263-.6856 1.0918-.9014.4697-.2158.986-.3237 1.5488-.3237.9775 0 1.7435.2348 2.2978.7045.5544.4655.8316 1.1088.8316 1.9297 0 .4232-.1291.8125-.3872 1.168-.2582.3555-.5967.6284-1.0156.8189.5205.1862.9077.4654 1.1616.8378.2581.3724.3872.8125.3872 1.3204 0 .8209-.3005 1.479-.9014 1.9741-.5967.4951-1.388.7427-2.374.7427-.9225 0-1.6779-.2434-2.2661-.73-.584-.4867-.876-1.1299-.876-1.9297h1.8345c0 .347.129.6305.3872.8506.2624.22.584.33.9648.33.4359 0 .7766-.1142 1.022-.3427.2497-.2328.3745-.5396.3745-.9204 0-.9226-.5078-1.3838-1.5234-1.3838h-.9712zm9.8896 1.7393c-.4782.4697-1.0368.7046-1.6757.7046-.8168 0-1.4706-.2793-1.9615-.8379-.4909-.5629-.7363-1.3203-.7363-2.2725 0-.6051.1312-1.1595.3936-1.6631.2666-.5078.6368-.9014 1.1108-1.1806.474-.2836 1.0072-.4253 1.5996-.4253.6094 0 1.151.1523 1.625.457s.8421.7427 1.1045 1.314c.2624.5712.3957 1.2251.3999 1.9614v.6792c0 1.5403-.383 2.7506-1.1489 3.6308-.766.8802-1.8514 1.3497-3.2564 1.4097l-.4507.006v-1.5299l.4063-.0064c1.5954-.0719 2.4586-.8209 2.5898-2.247zm-1.2251-.6983c.2963 0 .5502-.0762.7618-.2285.2158-.1523.3787-.3364.4887-.5522v-.7554c0-.6221-.1185-1.1045-.3554-1.4473-.237-.3428-.5544-.5141-.9522-.5141-.3682 0-.6707.1692-.9077.5078-.237.3343-.3555.7553-.3555 1.2632 0 .5035.1143.9183.3428 1.2441.2327.3216.5586.4824.9775.4824zm7.9405-3.8474c-.07 1.32.07 5.86-3.92 8.07.4.28.79.64 1 .95 2.11-1.29 3.16-3.22 3.7-5.02.56 1.84 1.68 3.9 3.94 5.02.19-.32.55-.73.92-1.01-3.73-1.75-4.23-6.06-4.31-7.44.01-.21.02-.41.03-.57z"/><path d="m117.999 100h-6.335v-1.2568l2.989-3.1866c.411-.4485.713-.84.908-1.1743.199-.3343.298-.6517.298-.9521 0-.4105-.103-.7321-.311-.9649-.207-.2369-.503-.3554-.888-.3554-.415 0-.743.1438-.984.4316-.237.2835-.356.658-.356 1.1235h-1.841c0-.5628.134-1.0769.4-1.5424.271-.4655.652-.8295 1.143-1.0918.491-.2666 1.047-.3999 1.669-.3999.953 0 1.691.2285 2.216.6855.529.457.793 1.1024.793 1.936 0 .4571-.118.9226-.355 1.3965-.237.474-.644 1.0262-1.219 1.6568l-2.101 2.2153h3.974zm2.996-5.4336h.977c.466 0 .811-.1164 1.035-.3491.224-.2328.336-.5417.336-.9268 0-.3724-.112-.6622-.336-.8696-.22-.2074-.525-.311-.914-.311-.351 0-.646.0973-.883.292-.237.1904-.355.4401-.355.749h-1.834c0-.4824.129-.9141.387-1.2949.262-.3851.626-.6856 1.092-.9014.469-.2158.986-.3237 1.548-.3237.978 0 1.744.2348 2.298.7045.555.4655.832 1.1088.832 1.9297 0 .4232-.129.8125-.387 1.168-.259.3555-.597.6284-1.016.8189.52.1862.908.4654 1.162.8378.258.3724.387.8125.387 1.3204 0 .8209-.301 1.479-.902 1.9741-.596.4951-1.388.7427-2.374.7427-.922 0-1.678-.2434-2.266-.73-.584-.4867-.876-1.1299-.876-1.9297h1.835c0 .347.129.6305.387.8506.262.22.584.33.965.33.436 0 .776-.1142 1.022-.3427.249-.2328.374-.5396.374-.9204 0-.9226-.508-1.3838-1.523-1.3838h-.971zm9.14-2.8064c-.07 1.32.07 5.86-3.92 8.07.4.28.79.64 1 .95 2.11-1.29 3.16-3.22 3.7-5.02.56 1.84 1.68 3.9 3.94 5.02.19-.32.55-.73.92-1.01-3.73-1.75-4.23-6.06-4.31-7.44.01-.21.02-.41.03-.57z"/><path d="m162.12 100h-1.835v-7.0713l-2.19.6792v-1.4917l3.828-1.3711h.197zm9.032-6.7856c0 .4485-.112.8463-.336 1.1933s-.533.6242-.927.8316c.449.2158.804.5141 1.067.895.262.3766.393.8209.393 1.333 0 .8209-.279 1.4705-.838 1.9487-.558.474-1.318.711-2.279.711-.96 0-1.722-.2391-2.285-.7173s-.844-1.1257-.844-1.9424c0-.5121.131-.9585.394-1.3394.262-.3808.615-.6771 1.06-.8886-.394-.2074-.703-.4846-.927-.8316-.22-.347-.33-.7448-.33-1.1933 0-.7872.262-1.4135.787-1.879.525-.4697 1.238-.7045 2.139-.7045.897 0 1.608.2327 2.133.6982.529.4613.793 1.0897.793 1.8853zm-1.644 4.1196c0-.402-.116-.7236-.349-.9649-.233-.2412-.546-.3618-.939-.3618-.39 0-.701.1206-.933.3618-.233.237-.349.5586-.349.9649 0 .3935.114.7109.342.9521.229.2412.546.3618.952.3618.398 0 .709-.1163.934-.3491.228-.2327.342-.5543.342-.9648zm-.19-4.0308c0-.3597-.095-.6474-.286-.8633-.19-.22-.459-.33-.806-.33-.343 0-.609.1058-.8.3173-.19.2116-.285.5036-.285.876 0 .3682.095.6644.285.8887.191.2243.459.3364.806.3364s.614-.1121.8-.3364c.191-.2243.286-.5205.286-.8887zm6.817-1.5432c-.07 1.32.07 5.86-3.92 8.07.4.28.79.64 1 .95 2.11-1.29 3.16-3.22 3.7-5.02.56 1.84 1.68 3.9 3.94 5.02.19-.32.55-.73.92-1.01-3.73-1.75-4.23-6.06-4.31-7.44.01-.21.02-.41.03-.57z"/><path d="m211.169 95.4551.533-4.6973h5.18v1.5298h-3.675l-.229 1.9868c.436-.2327.899-.3491 1.39-.3491.88 0 1.57.2729 2.07.8188.499.5459.749 1.3098.749 2.2915 0 .5967-.127 1.132-.381 1.606-.25.4697-.61.8358-1.079 1.0981-.47.2582-1.025.3873-1.664.3873-.558 0-1.077-.112-1.555-.3365-.478-.2285-.857-.548-1.136-.9585-.275-.4105-.421-.8781-.438-1.4028h1.816c.038.3851.171.6855.399.9014.233.2116.536.3173.908.3173.415 0 .734-.1481.959-.4443.224-.3004.336-.7236.336-1.2695 0-.5248-.129-.9268-.387-1.2061s-.624-.4189-1.098-.4189c-.436 0-.79.1142-1.06.3428l-.178.165zm10.733-3.6951c-.07 1.32.07 5.86-3.92 8.07.4.28.79.64 1 .95 2.11-1.29 3.16-3.22 3.7-5.02.56 1.84 1.68 3.9 3.94 5.02.19-.32.55-.73.92-1.01-3.73-1.75-4.23-6.06-4.31-7.44.01-.21.02-.41.03-.57z"/><path d="m264.352 100h-1.834v-7.0713l-2.19.6792v-1.4917l3.827-1.3711h.197zm6.55-8.24c-.07 1.32.07 5.86-3.92 8.07.4.28.79.64 1 .95 2.11-1.29 3.16-3.22 3.7-5.02.56 1.84 1.68 3.9 3.94 5.02.19-.32.55-.73.92-1.01-3.73-1.75-4.23-6.06-4.31-7.44.01-.21.02-.41.03-.57z"/><path d="m262.97 80.54c-.12.52-.27.99-.46 1.42-.37-.27-.85-.55-1.27-.78.13-.21.26-.42.38-.64zm3.22 4.14c-.35 0-.4-.07-.4-.55v-1.9c.9-.47 1.85-1.01 2.67-1.58l-.89-1.03c-.47.43-1.11.94-1.78 1.37v-2.6h2.68v-1.14h-8.92v1.14h1.69c-.37 1.21-1.07 2.62-2.02 3.45.26.18.67.54.88.77.17-.16.34-.34.5-.54.46.28.97.63 1.35.93-.59.86-1.35 1.49-2.27 1.91.26.19.69.66.86.94 1.91-.97 3.28-2.96 3.8-6.17l-.77-.26-.2.04h-1.24c.15-.35.28-.69.39-1.03l-.17-.04h2.23v5.74c0 1.27.31 1.65 1.43 1.65h1.32c.99 0 1.29-.54 1.42-2.11-.32-.08-.81-.28-1.08-.49-.05 1.23-.11 1.5-.45 1.5zm12.36-5.06v-1.2h-3.98v-1.88h-1.22v1.88h-3.89v1.2h1.09v3.81c0 1.66.71 2.12 2.39 2.12h3.39c.71 0 1.56-.02 1.89-.09-.06-.31-.13-.89-.15-1.2-.41.07-1.13.12-1.7.12h-3.57c-.8 0-1.01-.25-1.01-.9v-3.86z"/><path d="m307.12 100h-1.835v-7.0713l-2.19.6792v-1.4917l3.828-1.3711h.197zm3.281-4.5449.534-4.6973h5.179v1.5298h-3.675l-.229 1.9868c.436-.2327.9-.3491 1.391-.3491.88 0 1.57.2729 2.069.8188s.749 1.3098.749 2.2915c0 .5967-.127 1.132-.381 1.606-.25.4697-.609.8358-1.079 1.0981-.47.2582-1.024.3873-1.663.3873-.559 0-1.077-.112-1.555-.3365-.478-.2285-.857-.548-1.137-.9585-.275-.4105-.421-.8781-.437-1.4028h1.815c.038.3851.171.6855.4.9014.233.2116.535.3173.908.3173.414 0 .734-.1481.958-.4443.224-.3004.336-.7236.336-1.2695 0-.5248-.129-.9268-.387-1.2061s-.624-.4189-1.098-.4189c-.436 0-.789.1142-1.06.3428l-.178.165zm10.734-3.6951c-.07 1.32.07 5.86-3.92 8.07.4.28.79.64 1 .95 2.11-1.29 3.16-3.22 3.7-5.02.56 1.84 1.68 3.9 3.94 5.02.19-.32.55-.73.92-1.01-3.73-1.75-4.23-6.06-4.31-7.44.01-.21.02-.41.03-.57z"/></g></svg><?xml version="1.0" encoding="utf-8"?>
<!-- Generator: Adobe Illustrator 24.1.1, SVG Export Plug-In . SVG Version: 6.00 Build 0)  -->
<svg version="1.1" id="レイヤー_1" xmlns="http://www.w3.org/2000/svg" xmlns:xlink="http://www.w3.org/1999/xlink" x="0px"
	 y="0px" viewBox="0 0 340 120" style="enable-background:new 0 0 340 120;" xml:space="preserve">
<style type="text/css">
	.st0{fill-rule:evenodd;clip-rule:evenodd;fill:none;}
	.st1{fill-rule:evenodd;clip-rule:evenodd;fill:#FFFFFF;filter:url(#Adobe_OpacityMaskFilter);}
	.st2{mask:url(#a_1_);fill:#364C97;}
	.st3{fill:#FFFFFF;stroke:#364C97;stroke-width:2;}
	.st4{fill:#364C97;}
	.st5{fill:none;stroke:#364C97;stroke-width:2;}
	.st6{fill:none;stroke:#333333;stroke-width:2;}
	.st7{fill:#4D4D4D;}
	.st8{fill-rule:evenodd;clip-rule:evenodd;fill:#FFFFFF;filter:url(#Adobe_OpacityMaskFilter_1_);}
	.st9{mask:url(#b_1_);fill:#364C97;}
</style>
<path class="st0" d="M141,24H98v96h47V44h97V24h-97H141z"/>
<defs>
	<filter id="Adobe_OpacityMaskFilter" filterUnits="userSpaceOnUse" x="96" y="22" width="148" height="100">
		<feColorMatrix  type="matrix" values="1 0 0 0 0  0 1 0 0 0  0 0 1 0 0  0 0 0 1 0"/>
	</filter>
</defs>
<mask maskUnits="userSpaceOnUse" x="96" y="22" width="148" height="100" id="a_1_">
	<path class="st1" d="M141,24H98v96h47V44h97V24h-97H141z"/>
</mask>
<path class="st2" d="M98,24v-2h-2v2H98z M98,120h-2v2h2V120z M145,120v2h2v-2H145z M145,44v-2h-2v2H145z M242,44v2h2v-2H242z
	 M242,24h2v-2h-2V24z M98,26h43v-4H98V26z M100,120V24h-4v96H100z M145,118H98v4h47V118z M143,44v76h4V44H143z M242,42h-97v4h97V42z
	 M240,24v20h4V24H240z M145,26h97v-4h-97V26z M141,26h4v-4h-4V26z"/>
<path class="st3" d="M148,47h44v72h-44V47z"/>
<path class="st4" d="M162.7,71.3h1.5v-1h-1.5v-1.1h-1.2v1.1H160v1h1.5v1.3h-2v1.1h5.2v-1.1h-2L162.7,71.3z M162.9,66
	c-0.2,0.5-0.5,0.9-0.9,1.3c-0.3-0.4-0.6-0.8-0.8-1.3H162.9z M158.7,68.5h-0.7v-0.6h0.7V68.5z M158.7,69.8h-0.7v-0.6h0.7V69.8z
	 M156.4,69.2h0.7v0.6h-0.7V69.2z M156.4,67.9h0.7v0.6h-0.7V67.9z M163.7,64.9l-0.2,0h-3.6v1h1.2l-0.8,0.2c0.3,0.7,0.6,1.2,1,1.7
	c-0.5,0.3-1.1,0.6-1.7,0.8V67h-1.5v-0.6h1.6v-1h-1.6v-0.9H157v0.9h-1.5v1h1.5V67h-1.4v3.6h1.4v0.6h-1.7v1h1.7v1.6h1.1v-1.6h1.6v-1
	h-1.6v-0.6h1.5V69c0.2,0.2,0.3,0.5,0.4,0.7c0.8-0.3,1.5-0.6,2.1-1c0.6,0.4,1.2,0.8,2,1c0.1-0.3,0.5-0.7,0.7-1
	c-0.7-0.2-1.3-0.4-1.9-0.8c0.7-0.7,1.2-1.6,1.5-2.7L163.7,64.9z M168,66.7h6.6v-1.1h-3.6v-1.1h-1.3v1.1h-3V68
	c-0.1-0.5-0.4-1.1-0.7-1.6l-0.9,0.4c0.3,0.6,0.6,1.4,0.7,1.9l0.9-0.4v0.3c0,0.3,0,0.6,0,0.9c-0.6,0.3-1.2,0.6-1.6,0.8l0.3,1.1
	c0.4-0.2,0.7-0.4,1.1-0.7c-0.2,0.8-0.5,1.7-1.1,2.3c0.2,0.1,0.7,0.6,0.9,0.8c1.4-1.4,1.6-3.7,1.6-5.3V66.7z M172.1,72.6v-1.8h2.1v-1
	h-2.1v-1.4h2.3v-1h-5.8v1h2.4v4.1h-1v-3.1h-1.1v3.1h-1v1h6.9v-1H172.1z M180,67.9c-0.7,0-1.3,0.6-1.3,1.3s0.6,1.3,1.3,1.3
	s1.3-0.6,1.3-1.3S180.7,67.9,180,67.9z M160.6,81.6v-2.2h2.3v2.2H160.6z M157.1,81.6v-2.2h2.3v2.2H157.1z M160.6,78.3v-1.7h-1.3v1.7
	h-3.4v5h1.2v-0.6h2.3v3.1h1.3v-3.1h2.3v0.5h1.3v-5H160.6z M174.6,81.9v-1h-3.9v-0.6h3v-1h-3V79c0.2-0.2,0.4-0.5,0.6-0.8h0.4
	c0.3,0.4,0.5,0.8,0.6,1.1l1-0.4c-0.1-0.2-0.2-0.4-0.4-0.6h1.7v-1h-2.8c0.1-0.2,0.2-0.3,0.2-0.5l-1.1-0.3c-0.2,0.6-0.5,1.2-0.9,1.6
	v-0.8h-2.2c0.1-0.2,0.2-0.3,0.2-0.5l-1.1-0.3c-0.4,0.8-0.9,1.7-1.6,2.3c0.3,0.1,0.8,0.5,1,0.7c0.3-0.3,0.6-0.7,0.9-1.1h0.1
	c0.2,0.4,0.4,0.8,0.5,1.1l1-0.4c-0.1-0.2-0.2-0.4-0.3-0.6h1.3c-0.1,0.1-0.2,0.2-0.4,0.3c0.1,0.1,0.4,0.2,0.6,0.3h-0.6v0.5h-2.9v1
	h2.9v0.6h-3.9v1h5.9v0.6h-5.5v1h1.8l-0.5,0.4c0.6,0.4,1.2,1.1,1.5,1.5l0.9-0.7c-0.3-0.3-0.7-0.8-1.2-1.2h3v1.1
	c0,0.1-0.1,0.2-0.2,0.2s-0.8,0-1.3,0c0.2,0.3,0.4,0.8,0.4,1.1c0.7,0,1.3,0,1.7-0.2c0.4-0.2,0.6-0.5,0.6-1.1v-1.1h1.7v-1h-1.7V82
	L174.6,81.9z M178,78.7h6.6v-1.1h-3.6v-1.1h-1.3v1.1h-3V80c-0.1-0.5-0.4-1.1-0.7-1.6l-0.9,0.4c0.3,0.6,0.6,1.4,0.7,1.9l0.9-0.4v0.3
	c0,0.3,0,0.6,0,0.9c-0.6,0.3-1.2,0.6-1.6,0.8l0.3,1.1c0.4-0.2,0.7-0.4,1.1-0.7c-0.2,0.8-0.5,1.7-1.1,2.3c0.2,0.1,0.7,0.6,0.9,0.8
	c1.4-1.4,1.6-3.7,1.6-5.3V78.7z M182.1,84.6v-1.8h2.1v-1h-2.1v-1.4h2.3v-1h-5.8v1h2.4v4.1h-1v-3.1h-1.1v3.1h-1v1h6.9v-1H182.1z"/>
<path class="st5" d="M196,47h45v72h-45V47z"/>
<path class="st6" d="M1,1h45v118H1V1z"/>
<path class="st7" d="M9.1,70.3v-0.9h1v0.6c0,0.1,0,0.2,0,0.3L9.1,70.3z M12.2,69.3v0.9h-1.1c0-0.1,0-0.2,0-0.3v-0.6L12.2,69.3z
	 M9.4,66.8c0.5-0.4,0.9-0.8,1.2-1.3c0.3,0.4,0.7,0.9,1.2,1.3H9.4z M13.3,71.2v-2.8h-2.1v-0.6h1.3v-0.5c0.3,0.2,0.5,0.3,0.8,0.5
	c0.2-0.3,0.4-0.8,0.6-1c-1-0.4-2.1-1.2-2.8-2.2H10c-0.5,0.8-1.4,1.6-2.3,2.1v-0.1H6.8v-2.1H5.7v2.1H4.5v1.1h1.2
	c-0.3,1.2-0.8,2.6-1.4,3.4c0.2,0.3,0.4,0.7,0.5,1.1c0.3-0.5,0.7-1.2,0.9-1.9v3.7h1.1v-4.3C7,70,7.2,70.5,7.3,70.7l0.6-0.9
	c-0.2-0.3-0.8-1.3-1.1-1.7v-0.5h0.9v-0.5c0.1,0.2,0.2,0.4,0.3,0.6c0.3-0.1,0.6-0.3,0.8-0.5v0.5h1.3v0.6H8v2.8h1.8
	c-0.3,0.7-0.9,1.4-2.5,1.8c0.2,0.2,0.5,0.6,0.6,0.9c1.5-0.5,2.3-1.2,2.7-2c0.6,1.1,1.4,1.6,2.4,2c0.1-0.3,0.4-0.7,0.7-1
	c-1-0.3-1.7-0.7-2.3-1.7L13.3,71.2z M16.2,68.8c0.8-0.5,1.6-1.2,2.2-1.9v1.6h1.2V67c0.6,0.7,1.4,1.4,2.2,1.8H16.2z M17.3,72.6v-0.4
	h3.4v0.4H17.3z M17.3,71h3.4v0.4h-3.4V71z M20.7,70.2h-3.4v-0.4h3.4V70.2z M23.5,66.7v-1h-3.9v-1.1h-1.2v1.1h-3.8v1h2.7
	c-0.8,0.8-1.9,1.4-3,1.8c0.3,0.2,0.6,0.7,0.7,0.9c0.4-0.2,0.8-0.3,1.1-0.6v3.8h-1.6v1h9v-1h-1.6v-3.8c0.3,0.2,0.7,0.4,1,0.5
	c0.2-0.3,0.5-0.7,0.8-0.9c-1.1-0.3-2.3-1-3.1-1.7L23.5,66.7z M25.9,67.2v-0.8H32v0.8h-2.5v-0.6h-1.2v0.6H25.9z M33.4,71.4v-1h-4
	c0-0.2,0.1-0.4,0.1-0.6h2.7v-1h-2.7v-0.6h2.9v-0.7h0.8v-2.1h-3.7v-0.9h-1.2v0.9h-3.6v2.1h0.9v0.7h2.7v0.6h-2.6v1h2.6
	c0,0.2,0,0.4-0.1,0.6h-3.6v1h3c-0.5,0.6-1.5,1.1-3.2,1.5c0.3,0.3,0.6,0.7,0.7,1c2-0.6,3.1-1.3,3.7-2.2c0.8,1.2,2,1.9,3.9,2.3
	c0.2-0.3,0.5-0.8,0.7-1c-1.6-0.2-2.7-0.6-3.4-1.4L33.4,71.4z M38.2,69.7l0-1v-0.4h-1.8c0-0.3,0-0.7,0-1.1h1.9
	c-0.1,0.1-0.2,0.3-0.3,0.4c0.3,0.2,0.7,0.6,0.9,0.8l0.1-0.1v1L38.2,69.7z M40.7,72.8c-0.5,0-0.6-0.1-0.6-0.5V70l0.5-0.3V72h1v-2.8
	l0.6-0.3c0,0.9,0,1.5,0,1.6c0,0.1-0.1,0.2-0.1,0.2s-0.2,0-0.3,0c0.1,0.2,0.2,0.6,0.2,0.9c0.3,0,0.6,0,0.8-0.1
	c0.3-0.1,0.4-0.3,0.4-0.7c0-0.3,0-1.3,0-2.7l0-0.2l-0.7-0.3l-0.2,0.1l0,0l-0.7,0.3v-1h-1v1.4l-0.5,0.3v-1h-0.7
	c0.2-0.3,0.4-0.6,0.6-1h3.6v-1.1h-3.1c0.1-0.3,0.2-0.7,0.3-1l-1.2-0.2c-0.2,0.8-0.5,1.6-0.9,2.3V66h-1.6v-1.5h-1.1V66h-1.5v1.1h1
	c0,2.3-0.1,4.5-1.1,5.9c0.3,0.2,0.7,0.6,0.8,0.8c0.8-1.1,1.2-2.8,1.3-4.6h0.8c0,2.3-0.1,3.2-0.2,3.4c-0.1,0.1-0.2,0.2-0.3,0.2
	s-0.4,0-0.7,0c0.2,0.3,0.3,0.7,0.3,1.1c0.4,0,0.8,0,1-0.1c0.3-0.1,0.5-0.2,0.6-0.4c0.2-0.3,0.3-1.3,0.3-3.7l0.4,1l0.4-0.2v1.9
	c0,1.1,0.3,1.5,1.5,1.5h1.8c1,0,1.3-0.4,1.4-1.6c-0.3-0.1-0.7-0.2-1-0.4c-0.1,0.9-0.1,1.1-0.5,1.1L40.7,72.8z M18.2,76.8
	c-0.1,1.3,0.1,5.9-3.9,8.1c0.4,0.3,0.8,0.6,1,0.9c2.1-1.3,3.2-3.2,3.7-5c0.6,1.8,1.7,3.9,3.9,5c0.2-0.3,0.5-0.7,0.9-1
	c-3.7-1.8-4.2-6.1-4.3-7.4c0-0.2,0-0.4,0-0.6L18.2,76.8z M29.4,82.7v-1c0.1,0.1,0.1,0.1,0.1,0.2c0.2-0.2,0.3-0.5,0.5-0.7
	c0.2,0.7,0.4,1.4,0.7,2c-0.4,0.6-1,1.1-1.8,1.5c-0.2-0.2-0.5-0.3-0.8-0.5c0.3-0.4,0.4-0.9,0.5-1.4L29.4,82.7z M26.5,82.7h1
	c-0.1,0.4-0.2,0.7-0.4,0.9c-0.3-0.1-0.6-0.3-0.9-0.4L26.5,82.7z M31.9,79.4c-0.1,0.9-0.3,1.7-0.5,2.3c-0.3-0.7-0.5-1.5-0.6-2.3H31.9
	z M33.7,79.4v-1.1H31c0.1-0.5,0.2-1.1,0.3-1.6l-1.2-0.2c-0.2,1.8-0.7,3.5-1.6,4.5c0.2,0.2,0.6,0.5,0.8,0.7H27l0.2-0.5l-0.4-0.1h0.6
	v-1.2c0.4,0.3,0.8,0.7,1,0.9l0.6-0.8c-0.2-0.2-0.9-0.6-1.4-0.8h1.6v-0.9h-1c0.2-0.3,0.5-0.7,0.9-1.2l-1-0.4
	c-0.2,0.4-0.4,0.9-0.7,1.3l0.7,0.3h-0.8v-1.7h-1.1v1.7h-0.8l0.6-0.3c-0.1-0.3-0.3-0.9-0.6-1.2L24.7,77c0.2,0.4,0.4,0.8,0.5,1.2h-0.8
	v0.9H26c-0.5,0.5-1.1,1-1.8,1.3c0.2,0.2,0.5,0.6,0.6,0.9c0.5-0.3,1-0.7,1.5-1.2v1L26.1,81c-0.1,0.2-0.2,0.5-0.3,0.7h-1.5v1h1
	c-0.3,0.5-0.5,0.9-0.7,1.3l1,0.3l0.1-0.2c0.2,0.1,0.4,0.2,0.6,0.3c-0.5,0.3-1.1,0.4-1.9,0.5c0.2,0.2,0.4,0.6,0.5,1
	c1.1-0.2,1.9-0.5,2.5-0.9c0.4,0.3,0.8,0.5,1,0.8l0.5-0.5c0.2,0.2,0.3,0.5,0.4,0.7c0.9-0.4,1.6-1,2.1-1.6c0.5,0.7,1,1.2,1.7,1.6
	c0.2-0.3,0.5-0.8,0.8-1c-0.7-0.4-1.3-0.9-1.8-1.7c0.5-1,0.9-2.3,1.1-3.7L33.7,79.4z"/>
<path class="st0" d="M340,0H49v17v5v98h47V22h244V0z"/>
<defs>
	<filter id="Adobe_OpacityMaskFilter_1_" filterUnits="userSpaceOnUse" x="47" y="-2" width="295" height="124">
		<feColorMatrix  type="matrix" values="1 0 0 0 0  0 1 0 0 0  0 0 1 0 0  0 0 0 1 0"/>
	</filter>
</defs>
<mask maskUnits="userSpaceOnUse" x="47" y="-2" width="295" height="124" id="b_1_">
	<path class="st8" d="M340,0H49v17v5v98h47V22h244V0z"/>
</mask>
<path class="st9" d="M49,0v-2h-2v2H49z M340,0h2v-2h-2V0z M49,120h-2v2h2V120z M96,120v2h2v-2H96z M96,22v-2h-2v2H96z M340,22v2h2
	v-2H340z M49,2h291v-4H49V2z M51,17V0h-4v17H51z M51,22v-5h-4v5H51z M51,120V22h-4v98H51z M96,118H49v4h47V118z M94,22v98h4V22H94z
	 M340,20H96v4h244V20z M338,0v22h4V0H338z"/>
<path class="st4" d="M60.1,66.3h-2.3v-0.5h2.3V66.3z M60.1,67.6h-2.3v-0.5h2.3V67.6z M61.2,65h-4.5v3.4h4.5V65z M61.9,69.8v-0.9h-6
	v0.9h1c-0.3,0.5-0.7,1-1.2,1.4c0.1-0.2,0.2-0.5,0.2-0.9c0-0.6-0.1-1.3-0.7-2c0.3-0.8,0.6-1.9,0.9-2.7L55.3,65l-0.2,0.1H53V74h1v-7.8
	h0.8c-0.2,0.7-0.4,1.6-0.6,2.2c0.6,0.7,0.7,1.3,0.7,1.8c0,0.3,0,0.5-0.2,0.6c-0.1,0.1-0.2,0.1-0.3,0.1c-0.1,0-0.3,0-0.4,0
	c0.2,0.3,0.3,0.7,0.3,1c0.2,0,0.5,0,0.6,0c0.2,0,0.4-0.1,0.5-0.2c0.2,0.2,0.5,0.5,0.6,0.6c0.4-0.3,0.8-0.6,1.1-1h0.5
	c-0.5,0.8-1.2,1.4-2,1.9c0.2,0.2,0.5,0.6,0.7,0.7c0.9-0.6,1.9-1.5,2.4-2.6h0.5c-0.4,0.9-1,1.7-1.7,2.2c0.2,0.2,0.6,0.5,0.7,0.7
	c0.8-0.7,1.5-1.7,2-2.8h0.2c-0.1,1.2-0.2,1.7-0.3,1.8c-0.1,0.1-0.2,0.1-0.3,0.1s-0.4,0-0.6,0c0.1,0.3,0.3,0.7,0.3,1c0.4,0,0.7,0,1,0
	c0.2-0.1,0.4-0.1,0.6-0.3c0.3-0.3,0.4-1.1,0.5-3l0-0.4h-3.8c0.1-0.2,0.2-0.3,0.3-0.5H61.9z M69.5,72.6v-2h1.8v-1.1h-1.8v-1.6h2v-1.1
	h-2v-2h-1.2v2h-0.8c0.1-0.4,0.2-0.9,0.3-1.4l-1.2-0.2c-0.1,0.8-0.3,1.7-0.5,2.4c-0.1-0.4-0.3-0.9-0.6-1.3l-0.6,0.2v-1.9h-1.2v2
	l-0.8-0.1c-0.1,0.8-0.3,1.9-0.5,2.6l0.9,0.3c0.2-0.7,0.4-1.8,0.4-2.7V74h1.2v-6.8c0.2,0.4,0.3,0.8,0.4,1.2l0.6-0.3
	c-0.1,0.2-0.2,0.4-0.3,0.6c0.3,0.1,0.8,0.4,1.1,0.5c0.2-0.4,0.4-0.9,0.6-1.4h1.1v1.6h-1.9v1.1h1.9v2h-2.7v1.1h6.2v-1.1L69.5,72.6z
	 M77.2,66.8h1.6c-0.3,0.3-0.7,0.6-1.1,0.9h-0.6L77.2,66.8z M79.3,71.1h-3.4v-0.6h3.4V71.1z M75.9,72.7V72h3.4v0.7H75.9z M81.7,68.7
	v-1.1h-2.3c0.7-0.7,1.4-1.4,2-2.2l-1-0.5c-0.3,0.4-0.7,0.9-1,1.3v-0.5h-2.2v-1.1H76v1.1h-2.3v1H76v0.9h-3.2v1.1h3.4
	c-1.2,0.7-2.4,1.3-3.7,1.7c0.2,0.2,0.6,0.7,0.7,1c0.5-0.2,1-0.4,1.5-0.6V74h1.2v-0.3h3.4V74h1.3v-4.4h-3.6c0.4-0.3,0.8-0.5,1.2-0.8
	L81.7,68.7z M87.6,70.8v-1c0.1,0.1,0.1,0.1,0.1,0.2c0.2-0.2,0.3-0.5,0.5-0.7c0.2,0.7,0.4,1.4,0.7,2c-0.4,0.6-1,1.1-1.8,1.5
	c-0.2-0.2-0.5-0.3-0.8-0.5c0.3-0.4,0.4-0.9,0.5-1.4L87.6,70.8z M84.7,70.8h1c-0.1,0.4-0.2,0.7-0.4,0.9c-0.3-0.1-0.6-0.3-0.9-0.4
	L84.7,70.8z M90.1,67.6c-0.1,0.9-0.3,1.7-0.5,2.3c-0.3-0.7-0.5-1.5-0.6-2.3H90.1z M91.9,67.6v-1.1h-2.7c0.1-0.5,0.2-1.1,0.3-1.6
	l-1.2-0.2c-0.2,1.8-0.7,3.5-1.6,4.5c0.2,0.2,0.6,0.5,0.8,0.7h-2.4l0.2-0.5L85,69.3h0.6v-1.2c0.4,0.3,0.8,0.7,1,0.9l0.6-0.8
	c-0.2-0.2-0.9-0.6-1.4-0.8h1.6v-0.9h-0.9c0.2-0.3,0.6-0.7,0.9-1.2l-1-0.4c-0.2,0.4-0.4,0.9-0.7,1.3l0.7,0.3h-0.8v-1.7h-1.1v1.7h-0.8
	l0.6-0.3c-0.1-0.3-0.3-0.9-0.6-1.2l-0.9,0.4c0.2,0.4,0.4,0.8,0.5,1.2h-0.8v0.9h1.6c-0.5,0.5-1.2,1-1.8,1.3c0.2,0.2,0.5,0.6,0.6,0.9
	c0.5-0.3,1-0.7,1.5-1.2v1l-0.2-0.1c-0.1,0.2-0.2,0.5-0.3,0.7h-1.4v1h0.9c-0.3,0.5-0.5,0.9-0.7,1.3l1,0.3l0.1-0.2
	c0.2,0.1,0.4,0.2,0.6,0.3c-0.5,0.3-1.1,0.4-1.9,0.5c0.2,0.2,0.4,0.6,0.5,1c1.1-0.2,1.9-0.5,2.5-0.9c0.4,0.3,0.8,0.5,1,0.8l0.4-0.5
	c0.2,0.2,0.3,0.5,0.4,0.7c0.9-0.4,1.6-1,2.1-1.6c0.4,0.7,1,1.2,1.7,1.6c0.2-0.3,0.6-0.8,0.8-1c-0.7-0.4-1.3-0.9-1.8-1.7
	c0.5-1,0.9-2.3,1.1-3.7L91.9,67.6z"/>
<path class="st5" d="M245,25h45v94h-45V25z"/>
<path class="st5" d="M294,25h45v94h-45V25z"/>
<g>
	<path class="st4" d="M311,80.8h0.8c0.2,0.6,0.4,1.1,0.7,1.6c-0.5,0.1-1,0.2-1.5,0.3V80.8z M313.6,77.9v0.5H311v-0.5H313.6z
		 M314.4,80.8c-0.3,0.3-0.7,0.6-1,0.8c-0.2-0.2-0.3-0.5-0.4-0.8H314.4z M311.1,79.8v-0.6h2.5v0.6H311.1z M309.5,84.2
		c0.9-0.2,2.1-0.5,3.2-0.8l-0.1-0.9c0.5,0.8,1.2,1.4,2.2,1.8c0.2-0.3,0.5-0.8,0.8-1c-0.7-0.2-1.2-0.5-1.7-0.9c0.5-0.3,1-0.6,1.5-0.9
		l-0.8-0.6v-3.8h-4.8v6.1c-0.2,0-0.4,0.1-0.6,0.1L309.5,84.2z M309.1,78.3c-0.4-0.5-1.1-1.1-1.7-1.5l-0.9,0.7
		c0.6,0.4,1.3,1.1,1.6,1.6L309.1,78.3z M308.8,80.4h-2.3v1.1h1.1v2.1c-0.4,0.3-0.9,0.7-1.4,0.9l0.6,1.2c0.5-0.4,1-0.8,1.4-1.2
		c0.6,0.8,1.5,1.1,2.7,1.1c1.2,0.1,3.2,0,4.4,0c0.1-0.3,0.2-0.9,0.4-1.2c-1.3,0.1-3.6,0.1-4.8,0.1c-1,0-1.8-0.3-2.2-1L308.8,80.4z
		 M324.5,79.4h-3.6v-0.8h3.6V79.4z M319.8,77.6v2h0.7v0.9h4.3v-0.9h0.8v-2h-2.4v-1.1H322v1.1H319.8z M319.1,76.9l-0.2,0.1h-2.2v8.9
		h1V78h0.8c-0.2,0.7-0.4,1.6-0.6,2.2c0.6,0.7,0.7,1.3,0.7,1.8c0,0.3,0,0.5-0.1,0.6c-0.1,0.1-0.2,0.1-0.3,0.1c-0.1,0-0.3,0-0.4,0
		c0.2,0.3,0.3,0.7,0.3,1c0.2,0,0.5,0,0.6,0c0.2,0,0.4-0.1,0.6-0.2c0.3-0.2,0.4-0.6,0.4-1.3c0-0.6-0.1-1.3-0.7-2
		c0.3-0.8,0.6-1.9,0.9-2.7L319.1,76.9z M324.2,84.7c-0.1,0-0.2,0-0.2-0.3v-2.2h1.5v-1.1h-5.6v1.1h1.1c-0.1,1.4-0.4,2.2-2,2.7
		c0.2,0.2,0.5,0.7,0.6,0.9c2-0.7,2.4-1.8,2.5-3.6h0.7v2.2c0,1,0.2,1.4,1.1,1.4h0.7c0.7,0,1-0.4,1.1-1.8c-0.3-0.1-0.8-0.3-1-0.4
		c0,1,0,1.2-0.2,1.2L324.2,84.7z"/>
	<path class="st4" d="M262,80.5c-0.1,0.5-0.3,1-0.5,1.4c-0.4-0.3-0.9-0.6-1.3-0.8c0.1-0.2,0.3-0.4,0.4-0.6H262z M265.2,84.7
		c-0.4,0-0.4-0.1-0.4-0.6v-1.9c0.9-0.5,1.9-1,2.7-1.6l-0.9-1c-0.5,0.4-1.1,0.9-1.8,1.4v-2.6h2.7v-1.1h-8.9v1.1h1.7
		c-0.4,1.2-1.1,2.6-2,3.4c0.3,0.2,0.7,0.5,0.9,0.8c0.2-0.2,0.3-0.3,0.5-0.5c0.5,0.3,1,0.6,1.4,0.9c-0.6,0.9-1.4,1.5-2.3,1.9
		c0.3,0.2,0.7,0.7,0.9,0.9c1.9-1,3.3-3,3.8-6.2l-0.8-0.3l-0.2,0h-1.2c0.1-0.3,0.3-0.7,0.4-1l-0.2,0h2.2v5.7c0,1.3,0.3,1.7,1.4,1.7
		h1.3c1,0,1.3-0.5,1.4-2.1c-0.3-0.1-0.8-0.3-1.1-0.5c0,1.2-0.1,1.5-0.5,1.5H265.2z M277.5,79.6v-1.2h-4v-1.9h-1.2v1.9h-3.9v1.2h1.1
		v3.8c0,1.7,0.7,2.1,2.4,2.1h3.4c0.7,0,1.6,0,1.9-0.1c-0.1-0.3-0.1-0.9-0.1-1.2c-0.4,0.1-1.1,0.1-1.7,0.1h-3.6c-0.8,0-1-0.3-1-0.9
		v-3.9L277.5,79.6z"/>
</g>
<g>
	<path class="st4" d="M62.1,76.5c-1.1,0.9-2,2.7-2,4.7c0,2,0.9,3.8,2,4.7v0H61c-1-0.9-1.9-2.7-1.9-4.7c0-2,0.8-3.8,1.9-4.7
		L62.1,76.5L62.1,76.5z"/>
	<path class="st4" d="M69.5,81.8c0.8,0.4,1.8,1.1,2.3,1.6l-1.1,0.8c-0.1-0.1-0.3-0.3-0.5-0.5l-2.4,0.1v2.1h-1.4v-2.1l-1.6,0l1.3,0.6
		c0,0-0.1,0.1-0.2,0.1c0,0,0,0-0.1,0c-0.6,0.5-1.5,1-2.3,1.3c-0.2-0.2-0.7-0.7-0.9-0.9c0.8-0.3,1.6-0.7,2.1-1.1l-1.3,0
		c0,0.1-0.1,0.1-0.2,0.2l-0.5-1.3h2l0.4-0.2c-0.5-0.4-1.1-0.7-1.6-1l1-0.7c0.1,0.1,0.2,0.1,0.4,0.2c0.3-0.2,0.5-0.4,0.7-0.5h-2.1
		v-3.8H71v3.8h-3.8l0.3,0.2c-0.1,0.1-0.1,0.1-0.3,0.1c-0.3,0.3-0.9,0.6-1.4,0.9c0.2,0.1,0.3,0.2,0.4,0.3c0.8-0.5,1.5-1,2.1-1.4
		l1.3,0.8c-0.1,0.1-0.2,0.1-0.3,0.1c-0.6,0.4-1.4,0.9-2.3,1.3l1.9,0c-0.2-0.1-0.3-0.2-0.5-0.3L69.5,81.8z M64.8,77.8v0.3h1.6v-0.3
		H64.8z M64.8,79.1v0.3h1.6v-0.3H64.8z M69.5,78.1v-0.3h-1.7v0.3H69.5z M69.5,79.5v-0.3h-1.7v0.3H69.5z M70.5,85.9
		c-0.5-0.4-1.5-1-2.2-1.4l1.1-0.7c0.7,0.3,1.7,0.9,2.3,1.3L70.5,85.9z"/>
	<path class="st4" d="M75.2,80.8c0.3,0.2,1.1,1.1,1.2,1.4l-0.8,1.1c-0.1-0.2-0.3-0.5-0.4-0.9v3.5h-1.4v-3.1
		c-0.3,0.6-0.5,1.2-0.8,1.6c-0.1-0.4-0.4-1-0.6-1.4c0.5-0.6,0.9-1.6,1.2-2.4h-1.1v-1.3h1.3v-0.9c-0.3,0.1-0.7,0.2-1,0.2
		c-0.1-0.3-0.3-0.8-0.4-1c1.1-0.3,2.3-0.7,3-1.2l1,1v-0.3h1.9v-0.7l1.7,0.1c0,0.1-0.1,0.2-0.3,0.2v0.4h1.8V78h-1.8v0.2h1.5v0.9h-1.5
		v0.2h2.2v1h-5.7v-1h2.1v-0.2h-1.5v-0.9h1.5V78h-1.9v-0.5c-0.1,0-0.1,0-0.2,0c-0.3,0.2-0.6,0.3-1,0.4v1.3H76v1.3h-0.8V80.8z
		 M81.3,84.4h-0.6c0.5,0.3,1.1,0.6,1.4,0.8l-1.4,0.7c-0.3-0.3-1-0.8-1.5-1.1l0.6-0.5h-1.6l0.7,0.4c0,0-0.1,0.1-0.2,0.1
		c-0.4,0.4-1.4,0.8-2.2,1c-0.2-0.3-0.5-0.7-0.8-0.9c0.5-0.1,1.1-0.3,1.6-0.6h-0.4v-3.8h4.5V84.4z M78.1,81.4v0.2h1.7v-0.2H78.1z
		 M78.1,82.4v0.3h1.7v-0.3H78.1z M78.1,83.3v0.3h1.7v-0.3H78.1z"/>
	<path class="st4" d="M82.2,85.9c1.1-0.9,2-2.7,2-4.7c0-2-0.9-3.8-2-4.7v-0.1h1.1c1,0.9,1.9,2.7,1.9,4.7c0,2-0.8,3.8-1.9,4.7
		L82.2,85.9L82.2,85.9z"/>
</g>
<g>
	<path class="st4" d="M213.9,84.5h3.9v1.1h-9.2v-1.1h3.8v-0.3h-3.1v-1.1h3.1v-0.3h-2.7v-3.2h2.7v-0.3h-3.7v-1.1h3.7v-0.3
		c-0.9,0-1.9,0.1-2.8,0.1c0-0.3-0.2-0.8-0.3-1.1c2.4,0,5.1-0.2,6.8-0.5l0.9,1.1c0,0-0.1,0-0.2,0c0,0-0.1,0-0.1,0
		c-0.8,0.1-1.8,0.2-2.8,0.3v0.4h3.8v1.1h-3.8v0.3h2.9v3.2h-2.9v0.3h3.3v1.1h-3.3V84.5z M211.1,80.5v0.3h1.3v-0.3H211.1z M211.1,81.9
		h1.3v-0.3h-1.3V81.9z M215.3,80.5h-1.4v0.3h1.4V80.5z M215.3,81.9v-0.3h-1.4v0.3H215.3z"/>
	<path class="st4" d="M221.4,78.8v1.7c0,1.6-0.2,4-1.6,5.4c-0.2-0.3-0.8-0.8-1-1c0.6-0.6,0.9-1.3,1.1-2c-0.3,0.2-0.5,0.3-0.8,0.4
		c0,0.1-0.1,0.2-0.2,0.2l-0.4-1.5c0.4-0.2,1-0.4,1.6-0.7c0-0.3,0-0.6,0-1.1l-0.9,0.5c-0.1-0.5-0.3-1.3-0.6-1.9l1-0.5
		c0.2,0.4,0.4,0.8,0.5,1.2v-2h2.9v-1.1l1.8,0.1c0,0.1-0.1,0.2-0.3,0.2v0.8h3.5v1.3H221.4z M225.5,84.5h2.4v1.3h-6.8v-1.3h0.9v-3
		l1.6,0.1c0,0.1-0.1,0.2-0.3,0.2v2.7h0.8v-3.8h-2.3v-1.2h5.8v1.2h-2.1v1.1h2V83h-2V84.5z"/>
</g>
<g>
	<path class="st4" d="M104.2,65.6h3.6c0,2,0.3,5.6,3.9,7.7c-0.3,0.3-0.9,0.9-1.2,1.3c-1.9-1.1-3-2.9-3.5-4.7
		c-0.7,2.1-1.9,3.7-3.6,4.7c-0.3-0.3-0.8-0.9-1.2-1.1c1.9-1,3.1-3,3.6-5.5l0.7,0.2c-0.1-0.4-0.1-0.7-0.1-1h-2.2V65.6z"/>
	<path class="st4" d="M115.7,68.4v-1.9c-0.2,0.8-0.4,1.6-0.7,2.3c0.6,0.7,0.8,1.3,0.8,1.9c0,1.7-1.1,1.7-1.8,1.7
		c0-0.3-0.1-0.8-0.2-1.1v3.3h-1.3v-9.1h2.2l0.2,0l0.9,0.4c0,0.1,0,0.1-0.1,0.2l0,0.1h2.1v-1.1l1.7,0.1c0,0.1-0.1,0.2-0.3,0.2v0.8
		h2.3v2.2h-0.7v0.9h-4.4v-0.9H115.7z M113.8,66.8v4.4c0.1,0,0.2,0,0.3,0c0.3,0,0.4-0.1,0.4-0.6c0-0.4-0.2-1-0.7-1.6
		c0.2-0.6,0.3-1.4,0.5-2.1H113.8z M120.1,72.8c0,0.3,0,0.3,0.1,0.3h0.1c0.1,0,0.1-0.1,0.2-1.1c0.3,0.2,0.8,0.4,1.2,0.5
		c-0.1,1.4-0.5,1.8-1.2,1.8h-0.6c-1,0-1.2-0.4-1.2-1.6v-1.7h-0.5c-0.1,1.6-0.5,2.8-2.5,3.5c-0.1-0.3-0.5-0.9-0.8-1.1
		c1.5-0.4,1.8-1.1,1.9-2.3h-1v-1.3h5.6v1.3h-1.4V72.8z M120.2,67.4H117V68h3.2V67.4z"/>
	<path class="st4" d="M125.8,69.8c0,0.8-0.6,1.4-1.4,1.4s-1.4-0.6-1.4-1.4s0.6-1.4,1.4-1.4C125.1,68.4,125.8,69.1,125.8,69.8z"/>
	<path class="st4" d="M103.7,76.8h2.9c0,1.6,0.2,4.5,3.1,6.1c-0.3,0.2-0.7,0.7-0.9,1c-1.5-0.9-2.4-2.3-2.8-3.7
		c-0.6,1.7-1.5,3-2.9,3.8c-0.2-0.2-0.7-0.7-1-0.9c1.6-0.8,2.5-2.4,2.9-4.4l0.6,0.1c0-0.3-0.1-0.6-0.1-0.8h-1.8V76.8z"/>
	<path class="st4" d="M112.9,79.1v-1.6c-0.2,0.6-0.4,1.3-0.5,1.8c0.5,0.6,0.6,1,0.6,1.5c0,1.3-0.8,1.3-1.4,1.3
		c0-0.3-0.1-0.6-0.2-0.9V84h-1v-7.3h1.8l0.2,0l0.7,0.4c0,0.1,0,0.1-0.1,0.1l0,0.1h1.7v-0.9l1.4,0.1c0,0.1-0.1,0.1-0.2,0.2v0.7h1.8
		v1.8H117v0.7h-3.5v-0.7H112.9z M111.4,77.8v3.5c0.1,0,0.2,0,0.3,0c0.2,0,0.3-0.1,0.3-0.5c0-0.3-0.2-0.8-0.6-1.3
		c0.1-0.5,0.3-1.2,0.4-1.7H111.4z M116.4,82.5c0,0.3,0,0.3,0.1,0.3h0.1c0.1,0,0.1-0.1,0.1-0.9c0.2,0.2,0.7,0.4,1,0.4
		c-0.1,1.1-0.4,1.4-1,1.4h-0.4c-0.8,0-1-0.3-1-1.3v-1.3h-0.4c-0.1,1.3-0.4,2.2-2,2.8c-0.1-0.3-0.4-0.7-0.6-0.9
		c1.2-0.3,1.5-0.9,1.6-1.9H113v-1h4.5v1h-1.1V82.5z M116.5,78.3h-2.6v0.5h2.6V78.3z"/>
	<path class="st4" d="M120.8,77.7v0.9h-2.7v-0.9H120.8z M125.4,76.7v6.1c0,1-0.3,1.2-1.6,1.2c0-0.3-0.2-0.8-0.3-1.1
		c0.2,0,0.4,0,0.5,0c0.3,0,0.4,0,0.4-0.1v-5.1h-2.3v2.1c0,1.3-0.1,3.2-0.7,4.3c-0.2-0.2-0.6-0.5-0.8-0.6v0.1h-1.3v0.3h-0.9v-2.8h2.2
		v2.2c0.4-1,0.5-2.4,0.5-3.5v-3.1H125.4z M120.6,78.9v0.9h-2.2v-0.9H120.6z M118.4,80.8V80h2.2v0.9H118.4z M120.5,76.6v0.9h-2.1
		v-0.9H120.5z M119.6,82.7V82h-0.4v0.7H119.6z M122.2,79.4h0.5V79h-0.5v-0.8h0.5v-0.5l1.1,0.1c0,0.1-0.1,0.1-0.2,0.1v0.3h0.5V79
		h-0.5v0.4h0.5v0.8h-1.9V79.4z M124.2,82.7H123V83h-0.8v-2.4h1.9V82.7z M123.4,81.4H123v0.5h0.3V81.4z"/>
	<path class="st4" d="M127.6,80.6v-0.5c-0.3,0.2-0.6,0.4-0.9,0.6c-0.1-0.2-0.4-0.6-0.6-0.7c0.4-0.1,0.8-0.4,1.2-0.6h-0.8v-1.6h1.1
		v-0.2h-1.4v-0.8h1.4v-0.4l1.2,0.1c0,0.1-0.1,0.1-0.2,0.2v0.2h1.5v0.8h-1.5v0.2h1.2v0.6c0.4-0.5,0.7-1.2,0.9-2l1.2,0.3
		c0,0.1-0.1,0.1-0.2,0.1c0,0.2-0.1,0.3-0.1,0.5h2v0.9H133c-0.1,0.4-0.3,0.8-0.6,1.2c0.3,0.2,0.7,0.4,1.2,0.5
		c-0.2,0.2-0.5,0.6-0.6,0.9c-0.5-0.2-0.9-0.4-1.2-0.7c-0.4,0.3-0.8,0.5-1.4,0.7c-0.1-0.2-0.4-0.6-0.6-0.8c0.5-0.1,1-0.3,1.3-0.6
		c-0.1-0.2-0.2-0.3-0.3-0.5c-0.1,0.1-0.2,0.2-0.3,0.3c-0.1-0.2-0.4-0.5-0.6-0.7v0.8h-0.9c0.3,0.2,0.7,0.4,0.9,0.5l-0.5,0.7
		c-0.2-0.1-0.4-0.3-0.7-0.5v0.6H127.6z M130.4,82.7V83h3.1v0.9h-7.3V83h1.1v-1.1l1.3,0.1c0,0.1-0.1,0.1-0.2,0.2V83h0.9v-1.3h-2.6
		v-0.9h6.4v0.9h-2.6v0.2h1.9v0.8H130.4z M127.4,78.4v0.3h0.2v-0.3H127.4z M128.9,78.4h-0.3v0.3h0.3V78.4z M131.2,78.2
		c0.1,0.2,0.2,0.4,0.4,0.5c0.1-0.2,0.2-0.3,0.2-0.5H131.2z"/>
	<path class="st4" d="M138.4,77.8h2.8v4.2H140v-0.4h-1.6V84h-1.2v-2.4h-1.5V82h-1.2v-4.2h2.7v-1.4l1.5,0.1c0,0.1-0.1,0.1-0.3,0.2
		V77.8z M135.7,80.4h1.5v-1.5h-1.5V80.4z M138.4,80.4h1.6v-1.5h-1.6V80.4z"/>
</g>
</svg>
